<svg width="48" height="48" viewBox="0 0 48 48" fill="none" xmlns="http://www.w3.org/2000/svg">
<path d="M0 14.5323C0.00800092 10.6798 1.51773 6.98754 4.19864 4.26384C6.87954 1.54014 10.5132 0.00696631 14.3039 0H47.3268V7.38697H14.3126C12.4499 7.39506 10.6658 8.15032 9.34825 9.48846C8.03075 10.8266 7.28647 12.6393 7.27738 14.5323L7.23413 26.9333C7.08341 28.5221 6.41914 30.0154 5.34505 31.1803C4.27099 32.3449 2.84761 33.1152 1.29721 33.3711L0 33.5732V14.5323Z" fill="#0029B6"/>
<path d="M0 48V40.6128H33.0228C34.8859 40.6038 36.67 39.8474 37.9875 38.5087C39.3047 37.1697 40.0489 35.3566 40.058 33.4634V21.6951C40.0671 19.9878 40.6732 18.3393 41.7678 17.0441C42.8625 15.7489 44.3745 14.8913 46.0338 14.6245L47.331 14.4268V33.4634C47.323 37.3163 45.8135 41.009 43.1326 43.7334C40.4519 46.4577 36.8183 47.9917 33.027 48H0Z" fill="#0029B6"/>
<path d="M27.9767 33.5995V24.0505L23.6699 29.2754L19.3675 24.0505V33.5995H13.6641V14.8091H19.0648L23.6699 20.8514L28.2751 14.8091H33.6758V33.5995H27.9767Z" fill="#0029B6"/>
</svg>
