<svg width="63" height="48" viewBox="0 0 63 48" fill="none" xmlns="http://www.w3.org/2000/svg">
<path d="M62.0249 24C62.0249 37.2547 48.1396 48 31.0126 48C13.8845 48 0 37.2547 0 24C0 10.7453 13.8845 0 31.0126 0C48.1396 0 62.0249 10.7456 62.0249 24Z" fill="#0029B6"/>
<path d="M58.5601 23.9559C58.5427 12.6157 46.1949 3.44154 30.9811 3.46489C26.8571 3.4711 22.9465 4.15313 19.4362 5.36916C16.458 5.00207 13.5302 6.17265 13.5302 6.17265C13.5302 6.17265 15.6654 9.62229 18.8714 10.8833C21.1249 11.7697 23.6685 11.0239 24.1138 10.6029C24.1143 10.6026 23.2391 8.81682 20.4131 7.56651C19.3195 7.08318 17.8084 6.64729 16.1311 6.41084C17.2607 6.50795 18.2192 6.38575 20.5005 7.11224C23.6764 8.12386 24.5149 10.0197 24.5149 10.0197C24.697 8.23364 23.5008 6.97216 22.3236 6.29584C25.0298 5.58996 27.9445 5.20201 30.9826 5.19754C45.2394 5.17543 56.8101 13.5764 56.8257 23.9608C56.831 27.175 55.7279 30.2027 53.7797 32.8521C53.7457 32.8186 52.4755 31.5196 50.9212 30.3838C51.6203 26.1987 48.5425 22.3089 45.1932 20.3895C46.7289 15.5038 42.0101 10.5132 33.4611 10.3346C32.1887 10.3247 30.4476 10.3903 29.3142 10.5122L29.7891 7.49349L29.1121 7.49449C26.7399 7.51386 25.8584 9.03315 25.6023 9.6295L24.6861 11.3922C19.3687 12.8678 16.4518 15.3912 16.191 15.6163C15.5758 16.1475 15.7024 16.3768 16.7983 15.9235C18.7542 15.1141 21.0303 14.3871 23.4159 13.8349L16.2424 27.035C12.4045 26.5958 8.40152 27.0461 6.37629 29.6473C5.61403 27.8767 5.2 25.9938 5.19727 24.0393C5.18783 18.0242 9.05772 12.6629 15.087 9.21173C13.5612 8.21725 12.1798 9.02496 11.7456 9.33642C11.7337 9.34486 11.7339 9.34536 11.7218 9.35256C6.61845 13.0878 3.45592 18.29 3.46462 24.0396C3.46884 26.7277 4.16652 29.2932 5.42999 31.6438C5.27525 32.4542 5.36541 33.4092 6.08619 34.3304C7.05584 35.5693 8.99762 36.117 11.2682 35.3227C14.3332 34.2519 16.689 30.8927 17.4378 29.6742C15.2243 29.3118 14.3488 30.117 14.0364 30.534C13.1333 31.7379 11.8057 33.09 10.4146 33.6869C7.56699 34.9079 5.72456 32.3315 7.97333 30.2578C9.49585 28.8533 12.5166 28.561 15.241 28.9045C15.241 28.9045 15.308 28.9047 15.3078 28.9047C18.7507 29.3595 21.4056 30.4009 21.9825 30.6359C21.4542 33.7413 21.0824 35.7258 21.0824 35.7258L22.0965 35.7384C25.4098 35.7369 25.7009 33.2626 25.7009 33.2626C25.7059 33.2671 25.8713 32.3921 25.8713 32.3921C28.9094 33.8851 31.8643 35.4796 32.0146 35.568C32.7922 35.9957 33.9171 35.9712 34.0912 34.8411L35.3783 26.0802C38.7477 25.8837 42.0573 24.5713 43.8232 22.6549C45.3604 23.861 46.7828 25.7832 47.054 28.1089C45.1731 27.2915 43.0458 26.8035 40.8618 27.142C35.8025 27.9256 34.0333 33.1293 36.8156 36.0817C38.9029 38.2969 41.8968 38.5378 45.117 37.3208C46.8163 36.6785 48.4904 35.4198 49.6339 33.6404C49.3929 33.396 48.9359 32.9656 48.4171 32.6459C46.9961 31.7714 45.9428 32.7624 45.6368 33.1097C44.7352 34.2388 43.501 35.0641 42.2098 35.3798C36.3248 36.8166 35.77 29.1109 41.8022 28.8796C43.7097 28.8063 45.3894 29.6205 46.8685 30.6917C46.868 30.6925 46.8675 30.694 46.8675 30.6947C48.3947 31.8417 50.492 33.966 51.5386 34.6953C53.7695 36.2496 55.9433 35.5651 55.9433 35.5651C55.9433 35.5651 55.5675 34.9459 54.9426 34.157C57.2482 31.15 58.5653 27.6671 58.5601 23.9559ZM22.3976 28.2895C21.2543 27.9219 19.1143 27.4773 18.669 27.3886L24.3249 16.951C23.7346 20.4285 23.0029 24.7273 22.3976 28.2895ZM35.6495 24.236L36.1701 20.6938C32.2629 20.7238 31.7016 23.3958 31.6373 23.8183C29.7678 22.9167 31.3551 20.9744 33.9846 20.4764C36.8966 19.9245 39.6605 20.5755 41.327 21.26C40.3899 22.9852 38.3185 24.0133 35.6495 24.236ZM42.0049 19.1598C40.5238 18.7721 38.5495 18.4209 36.4907 18.4944L37.1819 13.7897C33.0175 13.0876 32.7907 15.888 32.7907 15.888C32.6427 16.8929 32.4735 18.0409 32.2935 19.2597C28.4268 20.7571 28.058 24.208 31.3653 25.5517C31.0312 27.8151 30.5131 31.3186 30.5054 31.3132C29.43 30.8438 27.2684 29.9605 26.3072 29.6059L28.9325 12.9209C40.1848 11.7546 42.3831 16.9354 42.0049 19.1598ZM49.9257 36.7831L49.9212 36.7866C45.2347 40.4719 38.4504 42.7922 31.0399 42.8034C23.6804 42.8146 17.0374 40.5593 12.329 36.989C11.8641 36.6368 10.6851 35.8378 9.20302 36.5583C14.2477 41.4195 22.1564 44.5447 31.0439 44.5311C39.9627 44.5177 47.8866 41.3457 52.9139 36.4391C51.4962 35.7374 50.258 36.5342 49.9257 36.7831Z" fill="white"/>
</svg>
