<svg width="42" height="42" viewBox="0 0 42 42" fill="none" xmlns="http://www.w3.org/2000/svg">
<path d="M36.1064 6.84056C36.0511 6.78463 35.9959 6.78463 35.9407 6.78463C35.8854 6.78463 35.8302 6.84056 35.775 6.84056C34.7809 8.01517 33.621 9.07791 32.3507 9.91692C29.8101 11.539 26.9381 12.434 23.9004 12.434C18.2669 12.434 15.0635 9.63725 12.4676 7.62363C12.4124 7.5677 12.3572 7.51176 12.3572 7.45583C12.3572 7.39989 12.4124 7.34397 12.4676 7.28803C16.4995 4.15575 19.8134 2.14213 23.1824 0.967522C23.2928 0.911589 23.3481 0.855654 23.3481 0.743787C23.3481 0.63192 23.2377 0.575986 23.1271 0.520052C22.5196 0.464119 21.9121 0.464119 21.3046 0.464119C9.98226 0.408185 0.813965 9.69318 0.813965 21.1596C0.813965 27.4801 3.5755 33.1295 7.99395 36.9329C8.04919 36.9889 8.10442 36.9889 8.21488 36.9889C8.27011 36.9889 8.32534 36.9329 8.38057 36.8211L9.20902 34.1362C9.26426 34.0243 9.37472 33.9684 9.48518 33.9684C20.4208 36.3735 25.1155 30.3887 24.3423 26.6411C23.6794 23.4529 18.543 20.6562 11.0316 24.963C10.9764 25.019 10.9212 25.019 10.866 24.963C10.866 24.963 10.8107 24.963 10.8107 24.9072C10.7555 24.8512 10.7003 24.7953 10.7003 24.6834L13.2408 11.539C13.2408 11.4831 13.2961 11.4271 13.3514 11.3712C13.4065 11.3153 13.517 11.3712 13.5722 11.3712C14.2903 11.8187 16.4442 13.217 18.7639 14.6154C18.8192 14.6713 18.8743 14.7272 18.8743 14.8391C18.8192 15.3984 18.4878 17.4679 18.3773 18.363C18.3773 18.4188 18.3773 18.5308 18.4326 18.5866C18.4878 18.6426 18.543 18.6426 18.6535 18.6426C31.246 15.2306 33.8971 23.2291 33.5657 27.0327C32.7925 35.7024 23.3481 40.2889 14.953 40.4008C14.8426 40.4008 14.7321 40.4567 14.7321 40.5686C14.7321 40.6805 14.7873 40.7923 14.8977 40.7923C16.9414 41.4636 19.0953 41.855 21.3046 41.855C32.6268 41.855 41.7951 32.5701 41.7951 21.1037C41.7951 15.6222 39.586 10.5322 36.1064 6.84056Z" fill="#0029B6"/>
</svg>
