<svg width="105" height="32" viewBox="0 0 105 32" fill="none" xmlns="http://www.w3.org/2000/svg">
<path d="M25.6625 8.36999C25.4042 8.62828 25.4042 9.04014 25.6625 9.29843C25.9208 9.55672 26.3326 9.55672 26.5909 9.29843C26.8422 9.04014 26.8422 8.62828 26.5909 8.36999C26.3326 8.1117 25.9208 8.1117 25.6625 8.36999Z" fill="#FEFEFE"/>
<path d="M32.1407 7.96491H29.3344L28.6573 8.80261C28.5386 8.92129 28.5805 9.03996 28.6992 9.08184L29.6206 9.48673L32.2175 8.28603C32.3781 8.20226 32.3362 7.96491 32.1407 7.96491ZM21.7393 21.6054H18.2978C17.4112 22.129 17.132 22.2895 15.8964 22.7712C15.8056 22.7991 15.7777 22.8899 15.8126 23.0085L18.8912 31.6089H20.6503L17.8301 23.7276C19.659 23.7276 24.043 23.2389 26.4165 19.4065C25.7044 20.5164 23.9802 21.6054 21.7393 21.6054ZM26.591 9.29825C26.3327 9.54956 25.9208 9.54956 25.6625 9.29825C25.4042 9.03996 25.4042 8.62809 25.6625 8.3698C25.9208 8.11151 26.3327 8.11151 26.591 8.3698C26.0465 7.8253 25.1599 7.8253 24.6154 8.3698C24.0709 8.91431 24.0709 9.80087 24.6154 10.3454C25.1599 10.8899 26.0465 10.8899 26.591 10.3454C27.1355 9.80087 27.1355 8.91431 26.591 8.3698C26.8423 8.62809 26.8423 9.03996 26.591 9.29825ZM19.8545 24.8864L22.2559 31.6089H24.0151L21.495 24.5653C21.0133 24.6839 20.4548 24.8096 19.8545 24.8864ZM22.228 16.5094C22.4165 16.2232 22.591 15.93 22.7655 15.6368C22.6817 15.5949 22.6189 15.6019 22.5351 15.6857C18.9749 19.4483 15.5334 19.923 12.8946 19.923H8.85276C8.73408 19.923 8.62937 19.7764 8.71314 19.6508C11.8475 15.3297 15.317 11.951 17.865 9.74502L11.0936 15.4065C10.57 15.8462 9.93478 16.1255 9.0552 16.1255H0.531641C0.287313 16.1255 0.371081 16.3279 0.412966 16.4466C1.00633 18.2825 2.61192 19.923 5.41122 19.923L3.41471 21.9684C3.33094 22.0452 3.33094 22.2476 3.53339 22.2476H11.1355C16.6294 22.2476 20.0081 19.8602 22.228 16.5094Z" fill="#0029B6"/>
<path d="M98.1571 31.5951H104.349V12.4049H98.1571V19.4415H92.3211V12.4049H86.0803V31.5951H92.3211V24.363H98.1571V31.5951ZM24.6143 10.3456C24.0698 9.80105 24.0698 8.91449 24.6143 8.36998C25.1588 7.82548 26.0454 7.82548 26.5899 8.36998C27.1344 8.91449 27.1344 9.80105 26.5899 10.3456C26.0454 10.8901 25.1588 10.8901 24.6143 10.3456ZM26.4154 19.4066C28.7888 15.5742 29.6196 9.47993 29.6196 9.47993L28.6981 9.08202C28.5794 9.04014 28.5375 8.92147 28.6562 8.80279L29.3403 7.9651C28.8935 7.12042 27.3787 5.75916 25.1379 5.75916C23.8045 5.75916 22.6457 6.11519 21.5986 6.7993C21.5986 6.7993 20.0768 7.83246 17.8639 9.7452C15.3159 11.9511 11.8464 15.3298 8.71902 19.651C8.62827 19.7766 8.73299 19.9232 8.85166 19.9232H12.8935C15.5323 19.9232 18.9738 19.4485 22.534 15.6859C22.6178 15.6021 22.6806 15.5951 22.7644 15.637C22.8412 15.6789 22.8552 15.7627 22.8133 15.8464C22.2548 17.2077 20.8517 19.9651 18.2967 21.6056H21.7312C23.9791 21.6056 25.7033 20.5236 26.4154 19.4066ZM22.9319 24.0349L25.6196 31.6091H33.1379C31.5742 26.9668 29.8988 22.6038 28.3351 18.6038C27.0367 21.2915 25.8011 22.6457 22.9319 24.0349ZM0 31.6091H7.6021L10.171 23.5672H2.77138C1.8918 25.9686 0.95637 28.6073 0 31.6091ZM10.2897 14.3665L14.1291 11.2042C14.9319 9.00524 15.7766 6.7644 16.6562 4.87958C17.096 5.88482 17.5009 6.88307 17.9407 7.9651C20.0489 6.23386 21.3403 5.2007 23.0855 4.70506C22.0105 2.34555 21.2565 0.719023 20.8935 0H12.37C11.651 1.52182 8.93543 7.1623 5.77312 14.8063H8.85166C9.41012 14.8063 9.8918 14.7225 10.2897 14.3665ZM57.3264 29.4799L57.7243 31.5951H62.7644V12.4049H56.5305V25.7173C56.007 26.3595 54.8901 27.0367 53.9267 27.0367C52.2094 27.0367 51.2461 26.0384 51.2461 24.2443V12.4049H45.0541V25.7173C44.5306 26.3595 43.2949 27.0367 42.2548 27.0367C40.6562 27.0367 39.7766 26.0384 39.7766 24.2443V12.4049H33.5777V25.082C33.5777 29.7173 35.5812 32 39.7766 32C42.8133 32 44.5724 30.8761 45.9756 29.3962C46.9319 31.1204 48.6911 32 51.2461 32C54.2897 32 55.9651 30.918 57.3264 29.4799ZM77.0401 25.7173C76.4817 26.3595 75.5602 27.0436 74.0454 27.0436C72.363 27.0436 71.4416 25.4799 71.4416 22.4852C71.4416 18.8063 72.4468 16.9634 74.4433 16.9634C75.6021 16.9634 76.2025 17.0471 77.0401 17.2426V25.7173ZM71.9372 32H72.1326C74.904 31.9721 76.8168 31.0157 77.8779 29.4799L78.199 31.5951H83.281V13.2077C81.2426 12.5654 78.918 12.007 74.562 12.007C68.363 12.007 64.9703 15.8045 64.9703 22.7225C64.9703 29.1728 67.3438 31.9721 71.9372 32Z" fill="#0029B6"/>
</svg>
