<svg width="22" height="24" viewBox="0 0 22 24" fill="none" xmlns="http://www.w3.org/2000/svg">
<path d="M2.40006 24H19.2004C19.837 24 20.4474 23.7471 20.8975 23.297C21.3476 22.8469 21.6005 22.2365 21.6005 21.5999V8.39964C21.6005 8.08137 21.4741 7.77614 21.249 7.55109C21.024 7.32604 20.7187 7.19961 20.4005 7.19961H16.8004V6.26719C16.8004 3.13632 14.5167 0.333054 11.4003 0.0294474C10.5661 -0.0534599 9.72381 0.0391687 8.92759 0.301374C8.13137 0.563579 7.39886 0.989553 6.77718 1.55189C6.1555 2.11423 5.65841 2.80048 5.31791 3.56649C4.97741 4.3325 4.80103 5.16131 4.80011 5.99959V7.19961H1.20003C0.881761 7.19961 0.576529 7.32604 0.35148 7.55109C0.126431 7.77614 0 8.08137 0 8.39964V21.5999C0 22.2365 0.252862 22.8469 0.70296 23.297C1.15306 23.7471 1.76352 24 2.40006 24ZM16.8004 9.59967V11.9997H14.4003V9.59967H16.8004ZM7.20017 5.99959C7.20017 4.01474 8.8154 2.3995 10.8002 2.3995C12.7851 2.3995 14.4003 4.01474 14.4003 5.99959V7.19961H7.20017V5.99959ZM4.80011 9.59967H7.20017V11.9997H4.80011V9.59967Z" fill="#EB1D27"/>
</svg>
