<svg width="12" height="24" viewBox="0 0 12 24" fill="none" xmlns="http://www.w3.org/2000/svg">
<path d="M9.50969 21.0373C9.50069 21.0403 8.67114 21.3163 7.9511 21.3163C7.55357 21.3163 7.39306 21.2338 7.34206 21.1978C7.09004 21.0223 6.62202 20.6937 7.42306 19.0976L8.92316 16.1065C9.81271 14.3303 9.94472 12.6127 9.29068 11.2687C8.75665 10.1691 7.73208 9.41455 6.4105 9.14453C5.9376 9.04774 5.45612 8.99899 4.97341 8.99902C2.19975 8.99902 0.332132 10.6191 0.254127 10.6881C0.12389 10.8029 0.0374998 10.9593 0.0096889 11.1307C-0.018122 11.302 0.0143679 11.4777 0.101619 11.6278C0.18887 11.7779 0.32548 11.893 0.488152 11.9537C0.650824 12.0143 0.829486 12.0166 0.993672 11.9602C1.00117 11.9572 1.83222 11.6797 2.55227 11.6797C2.94679 11.6797 3.1058 11.7622 3.1553 11.7967C3.40882 11.9737 3.87835 12.3067 3.0788 13.8998L1.57871 16.8925C0.687654 18.6701 0.557146 20.3877 1.21119 21.7303C1.74522 22.8299 2.76828 23.5844 4.09286 23.8544C4.56389 23.9489 5.04692 23.9999 5.52395 23.9999C8.29912 23.9999 10.1682 22.3798 10.2462 22.3108C10.3766 22.1963 10.4632 22.0402 10.4913 21.8689C10.5195 21.6977 10.4873 21.5221 10.4005 21.3719C10.3136 21.2217 10.1774 21.1062 10.0149 21.0452C9.85252 20.9842 9.67396 20.9814 9.50969 21.0373Z" fill="#EB1D27"/>
<path d="M8.2505 7.50046C10.3217 7.50046 12.0007 5.82142 12.0007 3.75023C12.0007 1.67903 10.3217 0 8.2505 0C6.17931 0 4.50027 1.67903 4.50027 3.75023C4.50027 5.82142 6.17931 7.50046 8.2505 7.50046Z" fill="#EB1D27"/>
</svg>
