<svg width="20" height="40" viewBox="0 0 20 40" fill="none" xmlns="http://www.w3.org/2000/svg">
<path d="M11.1934 32.0161C11.1934 33.6614 9.82732 35 8.14815 35C6.46897 35 5.10288 33.6614 5.10288 32.0161C5.10288 30.8327 5.80963 29.8081 6.83128 29.326V13.1452C6.83128 12.4325 7.42082 11.8548 8.14815 11.8548C8.87547 11.8548 9.46502 12.4325 9.46502 13.1452V29.326C10.4867 29.8081 11.1934 30.8327 11.1934 32.0161ZM20 5.80645C20 6.51911 19.4105 7.09677 18.6831 7.09677H13.6625V12.5806H17.037C17.7644 12.5806 18.3539 13.1583 18.3539 13.871C18.3539 14.5836 17.7644 15.1613 17.037 15.1613H13.6625V20.6452H15.3909C16.1183 20.6452 16.7078 21.2228 16.7078 21.9355C16.7078 22.6481 16.1183 23.2258 15.3909 23.2258H13.6625V26.1379C15.3442 27.6477 16.2963 29.7559 16.2963 32.0161C16.2963 36.4185 12.6411 40 8.14815 40C3.65523 40 0 36.4185 0 32.0161C0 29.756 0.952099 27.6477 2.63374 26.1379V5.40323C2.63374 2.42387 5.10749 0 8.14815 0C10.8804 0 13.1537 1.9575 13.587 4.51613H18.6831C19.4105 4.51613 20 5.09379 20 5.80645ZM13.6625 32.0161C13.6625 30.3388 12.8876 28.7851 11.5362 27.7532C11.216 27.5088 11.0288 27.1332 11.0288 26.7355V5.40323C11.0288 3.84685 9.73654 2.58065 8.14815 2.58065C6.55975 2.58065 5.26749 3.84685 5.26749 5.40323V26.7355C5.26749 27.1333 5.08033 27.5088 4.76008 27.7532C3.40872 28.7851 2.63374 30.3388 2.63374 32.0161C2.63374 34.9955 5.10749 37.4194 8.14815 37.4194C11.1888 37.4194 13.6625 34.9955 13.6625 32.0161Z" fill="#EB1D27"/>
</svg>
