<svg width="47" height="40" viewBox="0 0 47 40" fill="none" xmlns="http://www.w3.org/2000/svg">
<path d="M45.3846 14.4379H42.5862L39.04 11.4619C38.3486 10.8828 37.4778 10.5655 36.5785 10.5649H34.86L37.6438 3.09148C37.7934 2.6911 37.5923 2.24435 37.1946 2.09378C37.1078 2.06086 37.0159 2.04411 36.9231 2.04421H29.5162C28.4787 2.04537 27.4642 1.7362 26.6015 1.15573C24.4636 -0.290461 21.6949 -0.38661 19.4631 0.907857L18.6992 1.34706C17.9051 1.8034 17.0066 2.04363 16.0923 2.04421H9.23077C8.80596 2.04382 8.46115 2.39026 8.46077 2.81804C8.46067 2.91138 8.47731 3.00404 8.51 3.09148L11.2938 10.5649H9.57539C8.67606 10.5655 7.80529 10.8828 7.11385 11.4619L3.56769 14.4379H0.769231C0.344423 14.4379 0 14.7848 0 15.2125V35.3524C0 35.7801 0.344423 36.127 0.769231 36.127H3.56769L7.11385 39.103C7.80529 39.6821 8.67606 39.9994 9.57539 40H36.5754C37.4747 39.9994 38.3455 39.6821 39.0369 39.103L42.5862 36.127H45.3846C45.8094 36.127 46.1538 35.7801 46.1538 35.3524V15.2125C46.1538 14.7848 45.8094 14.4379 45.3846 14.4379ZM3.07692 34.5777H1.53846V15.9872H3.07692V34.5777ZM10.3408 3.59342H16.0923C17.2742 3.59333 18.4356 3.28252 19.4615 2.69178L20.2254 2.25335C21.9519 1.25188 24.0937 1.32605 25.7477 2.44468C26.8631 3.19518 28.1747 3.59497 29.5162 3.59342H35.8131L29.4669 20.6348H26.2777L28.4531 6.03189L26.9315 5.79951L24.7223 20.6348H21.4315L19.2223 5.80261L17.7008 6.03499L19.8762 20.6348H16.6869L10.3408 3.59342ZM38.0554 37.9124C37.6405 38.2598 37.1181 38.4503 36.5785 38.4508H9.57846C9.03837 38.4492 8.51587 38.2574 8.10154 37.9086L5.04769 35.3524L8.09846 32.7961C8.51279 32.4473 9.03529 32.2555 9.57539 32.2539H36.5754C37.1155 32.2555 37.638 32.4473 38.0523 32.7961L41.1062 35.3524L38.0554 37.9124ZM41.5385 33.7017L39.04 31.6048C38.349 31.0246 37.4782 30.7062 36.5785 30.7047H9.57846C8.67913 30.7053 7.80837 31.0226 7.11692 31.6017L4.61538 33.6986V15.5727L8.09846 12.6563C8.51279 12.3075 9.03529 12.1157 9.57539 12.1141H11.8708L15.0438 20.6348H12.3077V22.184H33.8462V20.6348H31.11L34.2831 12.1141H36.5785C37.1186 12.1157 37.6411 12.3075 38.0554 12.6563L41.5385 15.5758V33.7017ZM44.6154 34.5777H43.0769V15.9872H44.6154V34.5777Z" fill="#0029B6"/>
</svg>
