<svg width="120" height="123" viewBox="0 0 120 123" fill="none" xmlns="http://www.w3.org/2000/svg">
<path d="M60.9256 66.3758C61.8651 65.1407 62.4441 63.6185 62.4441 61.9496C62.4441 60.2151 61.8167 58.6413 60.8095 57.3831C62.0991 58.4825 63.7517 59.1712 65.5813 59.1712C67.4368 59.1712 69.1121 58.465 70.4086 57.3379C69.3787 58.6025 68.7365 60.1939 68.7365 61.9496C68.7365 63.6407 69.331 65.1785 70.2922 66.421C69.0113 65.3521 67.3825 64.6838 65.5813 64.6838C63.8056 64.6838 62.1986 65.3336 60.9256 66.3758ZM76.1163 54.5908C74.2607 54.5908 72.5856 55.297 71.2892 56.425C72.3187 55.1595 72.9618 53.569 72.9618 51.8124C72.9618 47.7481 69.6572 44.4536 65.5813 44.4536C61.5054 44.4536 58.2011 47.7481 58.2011 51.8124C58.2011 53.5477 58.8285 55.1207 59.8356 56.3788C58.5461 55.2795 56.8934 54.5908 55.0639 54.5908C50.988 54.5908 47.6842 57.8862 47.6842 61.9496C47.6842 66.0139 50.988 69.3084 55.0639 69.3084C56.8392 69.3084 58.4466 68.6576 59.7195 67.6164C58.7797 68.8505 58.2011 70.3727 58.2011 72.0416C58.2011 76.1059 61.5054 79.4004 65.5813 79.4004C69.6572 79.4004 72.9618 76.1059 72.9618 72.0416C72.9618 70.3515 72.3669 68.8127 71.4053 67.5702C72.6869 68.6401 74.315 69.3084 76.1163 69.3084C80.1925 69.3084 83.4963 66.0139 83.4963 61.9496C83.4963 57.8862 80.1925 54.5908 76.1163 54.5908Z" fill="#EB1D27"/>
<path d="M12.3821 47.7288V122.001H94.4078" stroke="#0029B6" stroke-width="1.5" stroke-miterlimit="10" stroke-linecap="round" stroke-linejoin="round"/>
<path d="M93.507 104.807C94.5568 107.05 97.4064 108.845 98.0063 110.489C98.6062 112.134 103.281 122.001 103.281 122.001L119 121.92V0.999876H12.3821V17.4888V18.71" stroke="#0029B6" stroke-width="1.5" stroke-miterlimit="10" stroke-linecap="round" stroke-linejoin="round"/>
<path d="M78.0627 73.5587C78.0627 73.5587 80.162 77.4458 81.2114 78.7917C82.2616 80.1375 83.7609 82.0806 83.7609 84.0246C83.7609 85.9686 84.6607 92.0987 86.6101 94.4914C87.2836 95.3175 90.0309 99.7575 90.9718 101.092" stroke="#0029B6" stroke-width="1.5" stroke-miterlimit="10" stroke-linecap="round" stroke-linejoin="round"/>
<path d="M73.9578 77.2839C73.9578 77.2839 76.7015 80.271 77.2663 82.1217L75.0878 83.007C75.0878 83.007 78.477 87.9159 78.8806 90.3307H76.7015C76.7015 90.3307 77.9126 94.9978 77.6702 97.4919L75.3294 96.7682C75.3294 96.7682 75.814 101.435 75.4907 102.803L72.747 101.918C72.747 101.918 72.828 105.942 72.2628 107.149L69.2768 106.425C69.2768 106.425 68.9539 110.126 68.2273 111.333L65.6894 110.529C65.6894 110.529 66.2095 113.667 65.2414 115.276H62.0128C62.0128 115.276 57.4935 120.52 54.1036 122.001C54.1036 122.001 51.2788 117.369 50.9563 113.345L49.3419 113.667C49.3419 113.667 48.1312 110.367 48.5349 108.195L46.9209 109.563C46.9209 109.563 46.0331 105.057 46.3557 103.125L44.3382 103.447C44.3382 103.447 43.0467 99.6648 43.9345 95.4805L41.917 95.5608C41.917 95.5608 41.7553 92.9855 42.5629 89.7667L40.8679 89.3642C40.8679 89.3642 41.9976 85.2602 43.531 83.8922L41.8363 83.1685C41.8363 83.1685 42.6432 79.3858 45.4679 77.6956L43.8543 76.4088C43.8543 76.4088 45.5489 74.5571 49.2613 73.3507L48.4541 71.5802C48.4541 71.5802 51.9248 69.9704 54.6687 70.5334" stroke="#0029B6" stroke-width="1.5" stroke-miterlimit="10" stroke-linecap="round" stroke-linejoin="round"/>
<path d="M46.3587 59.7623C44.8253 59.7503 43.8573 60.6318 43.8573 60.6318C43.8573 60.6318 41.5971 59.2112 39.7408 59.7623C37.8849 60.3143 37.8039 61.5014 37.8039 61.5014C37.8039 61.5014 33.9298 61.038 32.8808 61.9232C31.8317 62.8085 31.6703 65.1429 31.6703 65.1429C31.6703 65.1429 27.554 65.706 27.312 66.5912C27.0701 67.4765 27.312 69.2469 27.312 69.2469C27.312 69.2469 23.5995 71.0977 23.2769 72.3041C22.954 73.5115 23.2769 74.4771 23.2769 74.4771C23.2769 74.4771 20.7625 76.4737 21.0973 77.2842C21.5014 78.2599 27.0701 80.1909 27.0701 80.1909C27.0701 80.1909 26.2629 81.3983 26.7471 81.8811C27.2313 82.3638 30.8632 83.9728 32.6384 83.8925C32.6384 83.8925 32.8808 85.1802 33.3649 85.5014C33.8495 85.8236 36.9971 86.4679 37.9652 85.9842L38.6107 87.1925C38.6107 87.1925 40.8738 87.4685 41.8003 86.7263" stroke="#0029B6" stroke-width="1.5" stroke-miterlimit="10" stroke-linecap="round" stroke-linejoin="round"/>
<path d="M56.2035 51.5424C56.2035 51.5424 53.1734 50.4966 51.9442 49.1286C50.7151 47.7606 52.2049 43.8984 51.9442 41.3231C51.6839 38.7477 50.5538 36.8969 50.5538 36.8969H48.9402C48.9402 36.8969 48.2136 32.2298 47.5678 31.0224C47.5678 31.0224 46.0345 31.1027 45.5503 31.7471C45.066 32.3904 42.7256 26.516 40.8693 25.0677L39.0127 26.4357C39.0127 26.4357 37.368 22.0095 36.0517 20.8824L33.8479 22.5735C33.8479 22.5735 32.0723 20.0784 29.3279 19.0326L28.1175 20.4809C28.1175 20.4809 23.3555 16.6981 21.4997 16.0547L20.4503 17.6646C20.4503 17.6646 16.8188 16.135 14.3973 15.4917L12.3819 18.7104C12.3819 18.7104 9.15113 17.7449 6.97231 17.6646C6.97231 17.6646 6.40745 19.676 6.48773 20.4809C6.48773 20.4809 2.21073 21.2858 1 22.2513C1 22.2513 1.96844 25.9529 3.50175 27.2406L1.56487 28.6889C1.56487 28.6889 2.61395 31.747 5.35836 33.0347L3.74404 35.7708C3.74404 35.7708 4.87414 38.1043 8.18305 38.828L7.21424 41.6452C7.21424 41.6452 10.125 44.059 12.3819 44.2197L11.5722 46.9557C11.5722 46.9557 14.8819 49.4507 16.8188 49.531L16.5765 51.5424C16.5765 51.5424 20.1277 52.9917 23.5979 52.831L23.6785 55.0031C23.6785 55.0031 27.472 56.0489 30.2157 55.4055L30.458 57.0948C30.458 57.0948 34.8159 58.0612 36.5109 56.7735L37.8023 57.4427C37.8023 57.4427 41.5955 56.8538 42.8066 55.1646L43.6936 56.2104C43.6936 56.2104 46.5184 53.6351 46.5184 52.3483C46.5184 51.0606 48.1326 50.4163 48.1326 50.4163" stroke="#0029B6" stroke-width="1.5" stroke-miterlimit="10" stroke-linecap="round" stroke-linejoin="round"/>
<path d="M73.9579 45.7617C73.9579 45.7617 74.0059 39.0694 74.6677 37.862L76.2173 38.5866C76.2173 38.5866 76.9439 34.1605 81.6247 30.2983L82.8355 31.3442C82.8355 31.3442 86.4674 26.918 91.0676 25.55L91.9554 27.1589C91.9554 27.1589 96.9587 25.3082 102.044 24.7451V26.6762C102.044 26.6762 108.904 23.6992 110.518 23.5377V25.3082C110.518 25.3082 114.889 24.182 118.999 24.6648" stroke="#0029B6" stroke-width="1.5" stroke-miterlimit="10" stroke-linecap="round" stroke-linejoin="round"/>
<path d="M118.999 52.9914C118.999 52.9914 117.379 55.4052 116.088 56.2904L117.543 58.1412C117.543 58.1412 112.536 61.1182 110.196 61.8428L111.729 63.5329C111.729 63.5329 109.55 65.464 103.336 65.464V67.7828C103.336 67.7828 97.8471 69.568 92.8438 68.8443V70.8557C92.8438 70.8557 88.5665 71.0661 83.9659 67.7828" stroke="#0029B6" stroke-width="1.5" stroke-miterlimit="10" stroke-linecap="round" stroke-linejoin="round"/>
<path d="M80.7009 53.6909C80.7009 53.6909 86.2637 51.1949 89.4935 50.4685C92.7236 49.7411 94.5991 48.7017 95.9535 47.7666C97.3079 46.8325 100.851 45.8974 103.351 45.0657C105.852 44.2349 110.227 41.0143 111.894 40.2869C113.562 39.5595 118.998 38.0023 118.998 38.0023" stroke="#0029B6" stroke-width="1.5" stroke-miterlimit="10" stroke-linecap="round" stroke-linejoin="round"/>
<path d="M99.1834 29.8988C99.1834 29.8988 98.3493 32.5998 98.3493 33.8468C98.3493 35.093 98.6622 39.3521 98.6622 39.3521" stroke="#0029B6" stroke-width="1.5" stroke-miterlimit="10" stroke-linecap="round" stroke-linejoin="round"/>
<path d="M80.0125 36.7694C80.0125 36.7694 78.6582 39.6078 80.0125 42.3374C80.0125 42.3374 79.8277 46.2097 79.712 47.0405C79.5959 47.8712 79.4108 49.1294 79.4108 49.1294" stroke="#0029B6" stroke-width="1.5" stroke-miterlimit="10" stroke-linecap="round" stroke-linejoin="round"/>
<path d="M83.9691 36.7694C83.9691 36.7694 82.6217 40.7497 80.0164 42.3374" stroke="#0029B6" stroke-width="1.5" stroke-miterlimit="10" stroke-linecap="round" stroke-linejoin="round"/>
<path d="M119 45.1172C119 45.1172 114.397 40.8064 111.896 40.2867" stroke="#0029B6" stroke-width="1.5" stroke-miterlimit="10" stroke-linecap="round" stroke-linejoin="round"/>
<path d="M107.914 59.7622C107.914 59.7622 103.575 56.9597 101.486 55.2207C99.3963 53.4816 98.7927 50.9071 93.5723 49.1293C93.5723 49.1293 94.3953 46.0019 94.6036 43.9231C94.8119 41.8462 97.9373 39.976 98.6668 39.352C99.3963 38.729 102.105 34.4699 102.105 34.4699" stroke="#0029B6" stroke-width="1.5" stroke-miterlimit="10" stroke-linecap="round" stroke-linejoin="round"/>
<path d="M100.637 60.6494L94.6021 57.1168C94.6021 57.1168 89.1446 51.9744 87.7582 50.91" stroke="#0029B6" stroke-width="1.5" stroke-miterlimit="10" stroke-linecap="round" stroke-linejoin="round"/>
<path d="M97.1029 63.0396C96.79 62.7276 95.2273 60.9617 94.6024 57.1171" stroke="#0029B6" stroke-width="1.5" stroke-miterlimit="10" stroke-linecap="round" stroke-linejoin="round"/>
<path d="M95.8477 65.1157C95.8477 65.1157 91.5748 62.976 89.127 61.501" stroke="#0029B6" stroke-width="1.5" stroke-miterlimit="10" stroke-linecap="round" stroke-linejoin="round"/>
<path d="M54.106 122.001C54.106 122.001 54.801 114.567 55.1135 113.009C55.4259 111.451 56.6765 108.126 56.6765 106.464C56.6765 104.802 56.5723 100.126 56.6765 98.7759C56.7803 97.4254 58.239 94.6202 58.0307 93.4784C57.8221 92.3347 57.4463 90.0501 58.051 87.6602C58.6556 85.2704 60.4323 81.5476 61.2659 80.1824" stroke="#0029B6" stroke-width="1.5" stroke-miterlimit="10" stroke-linecap="round" stroke-linejoin="round"/>
<path d="M48.6568 99.0649C48.6568 99.0649 49.7815 97.6342 51.0425 96.6982C52.3031 95.764 57.4303 94.5142 57.742 91.0877" stroke="#0029B6" stroke-width="1.5" stroke-miterlimit="10" stroke-linecap="round" stroke-linejoin="round"/>
<path d="M48.6568 92.75C48.6568 92.75 52.5808 94.3322 54.1091 94.8916" stroke="#0029B6" stroke-width="1.5" stroke-miterlimit="10" stroke-linecap="round" stroke-linejoin="round"/>
<path d="M46.8793 88.0757C46.8793 88.0757 52.4704 84.8551 54.1029 84.8551C55.7356 84.8551 58.6934 83.0504 60.1768 82.3258" stroke="#0029B6" stroke-width="1.5" stroke-miterlimit="10" stroke-linecap="round" stroke-linejoin="round"/>
<path d="M47.6092 81.6353C47.6092 81.6353 52.8882 82.6737 54.1036 84.855" stroke="#0029B6" stroke-width="1.5" stroke-miterlimit="10" stroke-linecap="round" stroke-linejoin="round"/>
<path d="M66.7787 91.8159C66.7787 91.8159 64.4863 92.0208 64.0697 91.0876C63.6531 90.1534 59.11 84.855 59.11 84.855" stroke="#0029B6" stroke-width="1.5" stroke-miterlimit="10" stroke-linecap="round" stroke-linejoin="round"/>
<path d="M65.6924 105.944C65.6924 105.944 64.6368 102.412 62.9488 101.373C61.2614 100.334 57.448 97.0052 57.7395 95.2412" stroke="#0029B6" stroke-width="1.5" stroke-miterlimit="10" stroke-linecap="round" stroke-linejoin="round"/>
<path d="M68.5502 100.126C68.5502 100.126 64.5608 97.7172 60.5941 99.5458" stroke="#0029B6" stroke-width="1.5" stroke-miterlimit="10" stroke-linecap="round" stroke-linejoin="round"/>
<path d="M51.3787 109.788C51.3787 109.788 52.5077 106.775 52.716 105.944C52.9243 105.114 56.6329 103.761 56.6325 101.995" stroke="#0029B6" stroke-width="1.5" stroke-miterlimit="10" stroke-linecap="round" stroke-linejoin="round"/>
<path d="M59.1105 114.775C59.1105 114.775 59.2077 111.348 58.7738 110.412C58.3398 109.477 56.587 108.75 56.6297 107.607" stroke="#0029B6" stroke-width="1.5" stroke-miterlimit="10" stroke-linecap="round" stroke-linejoin="round"/>
<path d="M27.1916 76.1294C27.1916 76.1294 35.6313 75.1943 37.6112 74.1549C39.5903 73.1155 44.3834 71.2463 45.4253 70.8309" stroke="#0029B6" stroke-width="1.5" stroke-miterlimit="10" stroke-linecap="round" stroke-linejoin="round"/>
<path d="M40.8679 63.8698C40.8679 63.8698 45.1091 64.8741 46.88 67.7827" stroke="#0029B6" stroke-width="1.5" stroke-miterlimit="10" stroke-linecap="round" stroke-linejoin="round"/>
<path d="M33.6482 67.7829C33.6482 67.7829 40.0958 71.4226 42.6026 71.958" stroke="#0029B6" stroke-width="1.5" stroke-miterlimit="10" stroke-linecap="round" stroke-linejoin="round"/>
<path d="M8.01888 26.0549C8.01888 26.0549 13.541 28.3404 15.7288 30.314C17.9171 32.2875 24.1682 37.1706 26.4606 38.521C28.7529 39.8715 36.733 41.534 39.5675 42.8844C42.4015 44.2349 50.008 48.7017 50.008 48.7017" stroke="#0029B6" stroke-width="1.5" stroke-miterlimit="10" stroke-linecap="round" stroke-linejoin="round"/>
<path d="M34.2741 26.0553C34.2741 26.0553 33.2322 33.847 33.6488 34.6778C34.0658 35.5085 36.4308 41.7568 36.4308 41.7568" stroke="#0029B6" stroke-width="1.5" stroke-miterlimit="10" stroke-linecap="round" stroke-linejoin="round"/>
<path d="M25.4176 26.0553C25.4176 26.0553 28.2311 31.5605 29.0122 31.9768C29.7937 32.3922 33.6487 34.6777 33.6487 34.6777" stroke="#0029B6" stroke-width="1.5" stroke-miterlimit="10" stroke-linecap="round" stroke-linejoin="round"/>
<path d="M16.6685 42.7803C16.6685 42.7803 21.357 42.7803 22.0864 42.7803C22.8158 42.7803 28.9107 39.555 30.3478 39.9815" stroke="#0029B6" stroke-width="1.5" stroke-miterlimit="10" stroke-linecap="round" stroke-linejoin="round"/>
<path d="M27.4849 51.1675C27.4849 51.1675 34.2434 49.949 34.9858 49.1173C35.7279 48.2866 40.1043 44.9699 41.6669 44.2906" stroke="#0029B6" stroke-width="1.5" stroke-miterlimit="10" stroke-linecap="round" stroke-linejoin="round"/>
<path d="M100.86 122.001H103.282" stroke="#0029B6" stroke-width="1.5" stroke-miterlimit="10" stroke-linecap="round" stroke-linejoin="round"/>
</svg>
