<svg width="266" height="273" viewBox="0 0 266 273" fill="none" xmlns="http://www.w3.org/2000/svg">
<path d="M135.07 147.264C137.172 144.5 138.467 141.095 138.467 137.361C138.467 133.481 137.063 129.96 134.81 127.145C137.695 129.604 141.393 131.145 145.486 131.145C149.637 131.145 153.385 129.565 156.286 127.044C153.982 129.873 152.545 133.433 152.545 137.361C152.545 141.145 153.875 144.585 156.025 147.365C153.16 144.973 149.516 143.478 145.486 143.478C141.513 143.478 137.918 144.932 135.07 147.264ZM169.055 120.898C164.904 120.898 161.156 122.477 158.256 125.001C160.559 122.17 161.998 118.611 161.998 114.681C161.998 105.588 154.605 98.2178 145.486 98.2178C136.367 98.2178 128.974 105.588 128.974 114.681C128.974 118.564 130.378 122.083 132.631 124.898C129.746 122.438 126.049 120.898 121.956 120.898C112.837 120.898 105.445 128.27 105.445 137.361C105.445 146.454 112.837 153.825 121.956 153.825C125.927 153.825 129.524 152.369 132.372 150.039C130.269 152.8 128.974 156.206 128.974 159.94C128.974 169.033 136.367 176.403 145.486 176.403C154.605 176.403 161.998 169.033 161.998 159.94C161.998 156.158 160.667 152.716 158.516 149.936C161.383 152.33 165.025 153.825 169.055 153.825C178.175 153.825 185.567 146.454 185.567 137.361C185.567 128.27 178.175 120.898 169.055 120.898Z" fill="#EB1D27"/>
<path d="M26.4648 105.545V271.713H209.979" stroke="#0029B6" stroke-width="1.5" stroke-miterlimit="10" stroke-linecap="round" stroke-linejoin="round"/>
<path d="M207.963 233.245C210.312 238.263 216.687 242.278 218.029 245.956C219.372 249.636 229.831 271.713 229.831 271.713L264.998 271.531V0.99948H26.4648V37.8897V40.6219" stroke="#0029B6" stroke-width="1.5" stroke-miterlimit="10" stroke-linecap="round" stroke-linejoin="round"/>
<path d="M173.41 163.334C173.41 163.334 178.107 172.03 180.455 175.041C182.804 178.052 186.159 182.399 186.159 186.749C186.159 191.098 188.172 204.813 192.533 210.166C194.04 212.014 200.186 221.947 202.291 224.934" stroke="#0029B6" stroke-width="1.5" stroke-miterlimit="10" stroke-linecap="round" stroke-linejoin="round"/>
<path d="M164.226 171.669C164.226 171.669 170.364 178.351 171.628 182.492L166.754 184.473C166.754 184.473 174.337 195.455 175.24 200.858H170.364C170.364 200.858 173.074 211.299 172.532 216.879L167.295 215.26C167.295 215.26 168.379 225.702 167.655 228.762L161.517 226.782C161.517 226.782 161.698 235.784 160.434 238.485L153.753 236.864C153.753 236.864 153.031 245.145 151.405 247.847L145.727 246.046C145.727 246.046 146.891 253.067 144.725 256.667H137.502C137.502 256.667 127.391 268.399 119.807 271.714C119.807 271.714 113.487 261.349 112.765 252.347L109.154 253.067C109.154 253.067 106.445 245.684 107.348 240.825L103.737 243.886C103.737 243.886 101.751 233.803 102.473 229.483L97.9588 230.202C97.9588 230.202 95.0695 221.741 97.0557 212.379L92.542 212.559C92.542 212.559 92.1803 206.797 93.987 199.596L90.1949 198.695C90.1949 198.695 92.7224 189.514 96.1529 186.453L92.3616 184.834C92.3616 184.834 94.1666 176.371 100.486 172.59L96.8762 169.711C96.8762 169.711 100.668 165.568 108.973 162.869L107.167 158.908C107.167 158.908 114.932 155.306 121.071 156.566" stroke="#0029B6" stroke-width="1.5" stroke-miterlimit="10" stroke-linecap="round" stroke-linejoin="round"/>
<path d="M102.48 132.467C99.0493 132.44 96.8834 134.413 96.8834 134.413C96.8834 134.413 91.8268 131.234 87.6738 132.467C83.5217 133.702 83.3404 136.358 83.3404 136.358C83.3404 136.358 74.6731 135.321 72.326 137.302C69.9789 139.282 69.6179 144.505 69.6179 144.505C69.6179 144.505 60.4085 145.765 59.8671 147.745C59.3259 149.726 59.8671 153.687 59.8671 153.687C59.8671 153.687 51.5613 157.828 50.8395 160.527C50.1171 163.228 50.8395 165.388 50.8395 165.388C50.8395 165.388 45.2141 169.855 45.9633 171.668C46.8672 173.851 59.3259 178.172 59.3259 178.172C59.3259 178.172 57.52 180.873 58.6034 181.953C59.6867 183.033 67.8122 186.633 71.7837 186.453C71.7837 186.453 72.326 189.334 73.4092 190.053C74.4933 190.773 81.5354 192.215 83.7012 191.133L85.1455 193.836C85.1455 193.836 90.2085 194.453 92.2814 192.793" stroke="#0029B6" stroke-width="1.5" stroke-miterlimit="10" stroke-linecap="round" stroke-linejoin="round"/>
<path d="M124.505 114.076C124.505 114.076 117.726 111.737 114.976 108.676C112.226 105.615 115.559 96.9748 114.976 91.2129C114.394 85.4511 111.865 81.3104 111.865 81.3104H108.255C108.255 81.3104 106.63 70.8689 105.185 68.1676C105.185 68.1676 101.754 68.3473 100.671 69.7888C99.5876 71.2282 94.3514 58.0854 90.1984 54.8452L86.0446 57.9058C86.0446 57.9058 82.3651 48.0033 79.4201 45.4817L74.4896 49.2651C74.4896 49.2651 70.5172 43.6829 64.3772 41.3431L61.6693 44.5833C61.6693 44.5833 51.0154 36.1203 46.8635 34.6808L44.5156 38.2825C44.5156 38.2825 36.3909 34.8605 30.9734 33.4211L26.4644 40.6224C26.4644 40.6224 19.2363 38.4622 14.3617 38.2825C14.3617 38.2825 13.0979 42.7825 13.2775 44.5833C13.2775 44.5833 3.70874 46.3842 1 48.5443C1 48.5443 3.16666 56.8257 6.59709 59.7066L2.26377 62.9469C2.26377 62.9469 4.61085 69.7888 10.7508 72.6697L7.13917 78.7909C7.13917 78.7909 9.66751 84.0117 17.0704 85.6308L14.903 91.9337C14.903 91.9337 21.415 97.3341 26.4644 97.6934L24.6529 103.815C24.6529 103.815 32.0575 109.397 36.3909 109.576L35.8488 114.076C35.8488 114.076 43.7938 117.319 51.5577 116.959L51.7381 121.819C51.7381 121.819 60.225 124.159 66.3634 122.719L66.9055 126.499C66.9055 126.499 76.6555 128.661 80.4476 125.78L83.3367 127.277C83.3367 127.277 91.8231 125.959 94.5326 122.18L96.5173 124.52C96.5173 124.52 102.837 118.758 102.837 115.879C102.837 112.998 106.448 111.557 106.448 111.557" stroke="#0029B6" stroke-width="1.5" stroke-miterlimit="10" stroke-linecap="round" stroke-linejoin="round"/>
<path d="M164.227 101.145C164.227 101.145 164.334 86.172 165.815 83.4707L169.282 85.0919C169.282 85.0919 170.907 75.1894 181.38 66.5487L184.088 68.8885C184.088 68.8885 192.214 58.986 202.506 55.9254L204.492 59.5251C204.492 59.5251 215.686 55.3844 227.063 54.1246V58.445C227.063 58.445 242.411 51.7848 246.021 51.4234V55.3844C246.021 55.3844 255.801 52.8649 264.995 53.945" stroke="#0029B6" stroke-width="1.5" stroke-miterlimit="10" stroke-linecap="round" stroke-linejoin="round"/>
<path d="M264.996 117.319C264.996 117.319 261.372 122.719 258.482 124.7L261.738 128.84C261.738 128.84 250.537 135.5 245.301 137.122L248.731 140.903C248.731 140.903 243.855 145.223 229.954 145.223V150.411C229.954 150.411 217.673 154.405 206.48 152.786V157.286C206.48 157.286 196.91 157.757 186.617 150.411" stroke="#0029B6" stroke-width="1.5" stroke-miterlimit="10" stroke-linecap="round" stroke-linejoin="round"/>
<path d="M179.312 118.885C179.312 118.885 191.758 113.301 198.984 111.675C206.211 110.048 210.407 107.723 213.437 105.63C216.467 103.541 224.393 101.449 229.988 99.5878C235.582 97.7291 245.371 90.5237 249.101 88.8964C252.831 87.269 264.993 83.7851 264.993 83.7851" stroke="#0029B6" stroke-width="1.5" stroke-miterlimit="10" stroke-linecap="round" stroke-linejoin="round"/>
<path d="M220.662 65.6543C220.662 65.6543 218.796 71.697 218.796 74.487C218.796 77.275 219.496 86.8037 219.496 86.8037" stroke="#0029B6" stroke-width="1.5" stroke-miterlimit="10" stroke-linecap="round" stroke-linejoin="round"/>
<path d="M177.772 81.025C177.772 81.025 174.742 87.3754 177.772 93.4822C177.772 93.4822 177.359 102.146 177.1 104.004C176.84 105.863 176.426 108.678 176.426 108.678" stroke="#0029B6" stroke-width="1.5" stroke-miterlimit="10" stroke-linecap="round" stroke-linejoin="round"/>
<path d="M186.625 81.0263C186.625 81.0263 183.61 89.9313 177.782 93.4834" stroke="#0029B6" stroke-width="1.5" stroke-miterlimit="10" stroke-linecap="round" stroke-linejoin="round"/>
<path d="M264.998 99.7021C264.998 99.7021 254.7 90.0578 249.105 88.8951" stroke="#0029B6" stroke-width="1.5" stroke-miterlimit="10" stroke-linecap="round" stroke-linejoin="round"/>
<path d="M240.196 132.467C240.196 132.467 230.489 126.197 225.814 122.306C221.139 118.415 219.789 112.656 208.109 108.678C208.109 108.678 209.951 101.681 210.417 97.0304C210.883 92.3838 217.875 88.1997 219.507 86.8037C221.139 85.4097 227.2 75.881 227.2 75.881" stroke="#0029B6" stroke-width="1.5" stroke-miterlimit="10" stroke-linecap="round" stroke-linejoin="round"/>
<path d="M223.916 134.451L210.413 126.548C210.413 126.548 198.203 115.043 195.102 112.662" stroke="#0029B6" stroke-width="1.5" stroke-miterlimit="10" stroke-linecap="round" stroke-linejoin="round"/>
<path d="M216.009 139.799C215.309 139.101 211.813 135.15 210.415 126.549" stroke="#0029B6" stroke-width="1.5" stroke-miterlimit="10" stroke-linecap="round" stroke-linejoin="round"/>
<path d="M213.2 144.444C213.2 144.444 203.641 139.657 198.164 136.357" stroke="#0029B6" stroke-width="1.5" stroke-miterlimit="10" stroke-linecap="round" stroke-linejoin="round"/>
<path d="M119.813 271.714C119.813 271.714 121.368 255.081 122.067 251.595C122.766 248.109 125.564 240.67 125.564 236.953C125.564 233.233 125.331 222.773 125.564 219.752C125.796 216.731 129.06 210.455 128.594 207.9C128.127 205.341 127.286 200.23 128.639 194.883C129.992 189.536 133.967 181.208 135.832 178.153" stroke="#0029B6" stroke-width="1.5" stroke-miterlimit="10" stroke-linecap="round" stroke-linejoin="round"/>
<path d="M107.621 220.398C107.621 220.398 110.138 217.197 112.959 215.103C115.779 213.013 127.25 210.217 127.948 202.551" stroke="#0029B6" stroke-width="1.5" stroke-miterlimit="10" stroke-linecap="round" stroke-linejoin="round"/>
<path d="M107.621 206.27C107.621 206.27 116.401 209.81 119.82 211.062" stroke="#0029B6" stroke-width="1.5" stroke-miterlimit="10" stroke-linecap="round" stroke-linejoin="round"/>
<path d="M103.645 195.812C103.645 195.812 116.154 188.606 119.806 188.606C123.459 188.606 130.076 184.569 133.395 182.948" stroke="#0029B6" stroke-width="1.5" stroke-miterlimit="10" stroke-linecap="round" stroke-linejoin="round"/>
<path d="M105.277 181.403C105.277 181.403 117.088 183.726 119.807 188.606" stroke="#0029B6" stroke-width="1.5" stroke-miterlimit="10" stroke-linecap="round" stroke-linejoin="round"/>
<path d="M148.165 204.18C148.165 204.18 143.036 204.638 142.104 202.551C141.172 200.461 131.008 188.607 131.008 188.607" stroke="#0029B6" stroke-width="1.5" stroke-miterlimit="10" stroke-linecap="round" stroke-linejoin="round"/>
<path d="M145.734 235.789C145.734 235.789 143.372 227.886 139.596 225.562C135.82 223.237 127.289 215.79 127.941 211.843" stroke="#0029B6" stroke-width="1.5" stroke-miterlimit="10" stroke-linecap="round" stroke-linejoin="round"/>
<path d="M152.128 222.773C152.128 222.773 143.203 217.383 134.328 221.474" stroke="#0029B6" stroke-width="1.5" stroke-miterlimit="10" stroke-linecap="round" stroke-linejoin="round"/>
<path d="M113.711 244.389C113.711 244.389 116.237 237.648 116.703 235.789C117.169 233.931 125.466 230.905 125.465 226.954" stroke="#0029B6" stroke-width="1.5" stroke-miterlimit="10" stroke-linecap="round" stroke-linejoin="round"/>
<path d="M131.009 255.545C131.009 255.545 131.226 247.877 130.256 245.783C129.285 243.693 125.363 242.066 125.459 239.509" stroke="#0029B6" stroke-width="1.5" stroke-miterlimit="10" stroke-linecap="round" stroke-linejoin="round"/>
<path d="M59.5981 169.085C59.5981 169.085 78.48 166.993 82.9096 164.668C87.3375 162.342 98.0609 158.16 100.392 157.231" stroke="#0029B6" stroke-width="1.5" stroke-miterlimit="10" stroke-linecap="round" stroke-linejoin="round"/>
<path d="M90.1949 141.657C90.1949 141.657 99.6837 143.904 103.646 150.411" stroke="#0029B6" stroke-width="1.5" stroke-miterlimit="10" stroke-linecap="round" stroke-linejoin="round"/>
<path d="M74.043 150.411C74.043 150.411 88.4679 158.554 94.0763 159.752" stroke="#0029B6" stroke-width="1.5" stroke-miterlimit="10" stroke-linecap="round" stroke-linejoin="round"/>
<path d="M16.7031 57.0547C16.7031 57.0547 29.0575 62.1681 33.9524 66.5834C38.8481 70.9988 52.8335 81.9235 57.9622 84.9449C63.0907 87.9662 80.9445 91.6856 87.2859 94.7069C93.6264 97.7283 110.644 107.722 110.644 107.722" stroke="#0029B6" stroke-width="1.5" stroke-miterlimit="10" stroke-linecap="round" stroke-linejoin="round"/>
<path d="M75.4431 57.056C75.4431 57.056 73.1122 74.4881 74.0442 76.3468C74.9771 78.2054 80.2684 92.1846 80.2684 92.1846" stroke="#0029B6" stroke-width="1.5" stroke-miterlimit="10" stroke-linecap="round" stroke-linejoin="round"/>
<path d="M55.6289 57.0549C55.6289 57.0549 61.9233 69.3716 63.671 70.303C65.4193 71.2323 74.044 76.3457 74.044 76.3457" stroke="#0029B6" stroke-width="1.5" stroke-miterlimit="10" stroke-linecap="round" stroke-linejoin="round"/>
<path d="M36.054 94.4736C36.054 94.4736 46.5434 94.4736 48.1753 94.4736C49.8072 94.4736 63.4431 87.2579 66.6583 88.212" stroke="#0029B6" stroke-width="1.5" stroke-miterlimit="10" stroke-linecap="round" stroke-linejoin="round"/>
<path d="M60.2535 113.238C60.2535 113.238 75.3741 110.512 77.035 108.652C78.6953 106.793 88.4865 99.3727 91.9825 97.8527" stroke="#0029B6" stroke-width="1.5" stroke-miterlimit="10" stroke-linecap="round" stroke-linejoin="round"/>
<path d="M224.414 271.713H229.832" stroke="#0029B6" stroke-width="1.5" stroke-miterlimit="10" stroke-linecap="round" stroke-linejoin="round"/>
</svg>
