<svg width="266" height="302" viewBox="0 0 266 302" fill="none" xmlns="http://www.w3.org/2000/svg">
<path d="M112.672 186.045C111.444 184.946 110.27 183.808 109.126 182.651C107.198 183.13 105.431 184.005 103.939 185.228C105.144 183.641 105.999 181.781 106.382 179.75C102.167 175.057 98.5929 169.975 95.6541 164.623C94.9894 164.516 94.3155 164.433 93.6163 164.433C86.439 164.433 80.6211 170.246 80.6211 177.418C80.6211 184.589 86.439 190.401 93.6163 190.401C96.743 190.401 99.574 189.254 101.816 187.417C100.161 189.595 99.143 192.279 99.143 195.226C99.143 202.397 104.961 208.209 112.138 208.209C119.313 208.209 125.129 202.401 125.136 195.235C120.778 192.613 116.597 189.565 112.672 186.045Z" fill="#EB1D27"/>
<path d="M121.446 162.138C123.772 159.077 125.205 155.298 125.205 151.157C125.205 146.852 123.651 142.952 121.157 139.828C124.35 142.556 128.442 144.264 132.974 144.264C137.567 144.264 141.714 142.512 144.926 139.716C142.374 142.853 140.786 146.799 140.786 151.157C140.786 155.353 142.258 159.168 144.637 162.251C141.464 159.599 137.432 157.941 132.974 157.941C128.577 157.941 124.598 159.555 121.446 162.138ZM159.058 132.9C154.464 132.9 150.315 134.655 147.106 137.451C149.655 134.311 151.246 130.365 151.246 126.007C151.246 115.926 143.064 107.75 132.974 107.75C122.881 107.75 114.699 115.926 114.699 126.007C114.699 130.313 116.251 134.215 118.748 137.336C115.554 134.609 111.46 132.9 106.931 132.9C96.8375 132.9 88.6562 141.074 88.6562 151.157C88.6562 161.241 96.8375 169.414 106.931 169.414C111.327 169.414 115.307 167.8 118.459 165.214C116.132 168.278 114.699 172.055 114.699 176.195C114.699 186.279 122.881 194.452 132.974 194.452C143.064 194.452 151.246 186.279 151.246 176.195C151.246 172.002 149.774 168.184 147.395 165.102C150.567 167.754 154.599 169.414 159.058 169.414C169.151 169.414 177.332 161.241 177.332 151.157C177.332 141.074 169.151 132.9 159.058 132.9Z" fill="#EB1D27"/>
<path d="M264.997 234.22V301H1V1H264.997V192.217V213.531" stroke="#0029B6" stroke-width="1.33333" stroke-miterlimit="10" stroke-linecap="round" stroke-linejoin="round"/>
<path d="M221.491 64.8699C254.984 94.8889 257.778 146.353 227.728 179.814C197.678 213.275 146.167 216.066 112.674 186.045C79.1789 156.026 76.3868 104.565 106.435 71.1013C136.485 37.6379 187.995 34.8485 221.491 64.8699V64.8699Z" stroke="#0029B6" stroke-width="1.33333" stroke-miterlimit="10" stroke-linecap="round" stroke-linejoin="round"/>
<path d="M214.294 72.8823C243.358 98.9303 245.781 143.588 219.706 172.624C193.631 201.661 148.933 204.084 119.869 178.034C90.802 151.983 88.3791 107.326 114.454 78.2893C140.529 49.2528 185.23 46.8321 214.294 72.8823V72.8823Z" stroke="#0029B6" stroke-width="1.33333" stroke-miterlimit="10" stroke-linecap="round" stroke-linejoin="round"/>
<path d="M237.569 167.628L244.977 174.269L224.078 197.539L216.672 190.9" stroke="#0029B6" stroke-width="1.33333" stroke-miterlimit="10" stroke-linecap="round" stroke-linejoin="round"/>
<path d="M252.279 188.464L238.986 203.265L227.875 193.305L241.168 178.504L252.279 188.464Z" stroke="#0029B6" stroke-width="1.33333" stroke-miterlimit="10" stroke-linecap="round" stroke-linejoin="round"/>
<path d="M265.001 234.22L235.188 207.499L256.087 184.226L265.001 192.216" stroke="#0029B6" stroke-width="1.33333" stroke-miterlimit="10" stroke-linecap="round" stroke-linejoin="round"/>
</svg>
