<svg width="109" height="123" viewBox="0 0 109 123" fill="none" xmlns="http://www.w3.org/2000/svg">
<path d="M46.042 75.6348C45.5464 75.1914 45.0731 74.7324 44.6117 74.2659C43.8341 74.459 43.1213 74.8118 42.5194 75.305C43.0057 74.6649 43.3506 73.9149 43.505 73.0956C41.8047 71.2029 40.3633 69.1533 39.178 66.9946C38.9099 66.9512 38.6381 66.918 38.3561 66.918C35.4613 66.918 33.1147 69.2623 33.1147 72.1553C33.1147 75.0473 35.4613 77.3916 38.3561 77.3916C39.6172 77.3916 40.759 76.9289 41.6632 76.1881C40.9957 77.0665 40.5852 78.1491 40.5852 79.3379C40.5852 82.2299 42.9318 84.5742 45.8266 84.5742C48.7205 84.5742 51.0661 82.2318 51.0689 79.3416C49.3113 78.2839 47.6249 77.0545 46.042 75.6348Z" fill="#EB1D27"/>
<path d="M49.5799 65.9927C50.5183 64.7577 51.0962 63.2336 51.0962 61.5636C51.0962 59.8271 50.4693 58.254 49.4634 56.9941C50.7513 58.0942 52.4017 58.7833 54.2296 58.7833C56.0824 58.7833 57.7549 58.0767 59.0502 56.9489C58.0212 58.2143 57.3805 59.8059 57.3805 61.5636C57.3805 63.2558 57.974 64.7947 58.9337 66.038C57.6541 64.9683 56.0278 64.2996 54.2296 64.2996C52.4562 64.2996 50.8512 64.9508 49.5799 65.9927ZM64.7502 54.2C62.8974 54.2 61.2239 54.9075 59.9295 56.0354C60.9576 54.769 61.5993 53.1775 61.5993 51.4197C61.5993 47.3536 58.2995 44.0561 54.2296 44.0561C50.1587 44.0561 46.8589 47.3536 46.8589 51.4197C46.8589 53.1562 47.4848 54.7302 48.4917 55.9892C47.2038 54.8891 45.5525 54.2 43.7255 54.2C39.6546 54.2 36.3549 57.4966 36.3549 61.5636C36.3549 65.6306 39.6546 68.9272 43.7255 68.9272C45.4988 68.9272 47.1039 68.276 48.3752 67.2332C47.4367 68.4691 46.8589 69.9922 46.8589 71.6623C46.8589 75.7292 50.1587 79.0259 54.2296 79.0259C58.2995 79.0259 61.5993 75.7292 61.5993 71.6623C61.5993 69.971 61.0057 68.4312 60.046 67.1879C61.3256 68.2576 62.9519 68.9272 64.7502 68.9272C68.8211 68.9272 72.1209 65.6306 72.1209 61.5636C72.1209 57.4966 68.8211 54.2 64.7502 54.2Z" fill="#EB1D27"/>
<path d="M107.479 95.0654V122H1V1H107.479V78.124V86.7208" stroke="#0029B6" stroke-width="1.33333" stroke-miterlimit="10" stroke-linecap="round" stroke-linejoin="round"/>
<path d="M89.9302 26.7608C103.439 38.8685 104.566 59.6255 92.4459 73.1215C80.3258 86.6175 59.5498 87.7434 46.0409 75.6348C32.5311 63.5272 31.405 42.771 43.5242 29.2741C55.6444 15.7772 76.4204 14.6522 89.9302 26.7608V26.7608Z" stroke="#0029B6" stroke-width="1.33333" stroke-miterlimit="10" stroke-linecap="round" stroke-linejoin="round"/>
<path d="M87.0277 29.9929C98.7503 40.4989 99.7276 58.5108 89.2106 70.2222C78.6936 81.9336 60.6655 82.9109 48.9429 72.4039C37.2193 61.897 36.2421 43.8851 46.7591 32.1737C57.276 20.4623 75.3051 19.486 87.0277 29.9929V29.9929Z" stroke="#0029B6" stroke-width="1.33333" stroke-miterlimit="10" stroke-linecap="round" stroke-linejoin="round"/>
<path d="M96.415 68.2063L99.4031 70.885L90.9739 80.2705L87.9866 77.5927" stroke="#0029B6" stroke-width="1.33333" stroke-miterlimit="10" stroke-linecap="round" stroke-linejoin="round"/>
<path d="M102.35 76.6103L96.9881 82.5801L92.5067 78.563L97.8683 72.5932L102.35 76.6103Z" stroke="#0029B6" stroke-width="1.33333" stroke-miterlimit="10" stroke-linecap="round" stroke-linejoin="round"/>
<path d="M107.48 95.0654L95.4551 84.2879L103.884 74.9014L107.48 78.1241" stroke="#0029B6" stroke-width="1.33333" stroke-miterlimit="10" stroke-linecap="round" stroke-linejoin="round"/>
</svg>
