<svg width="14" height="14" viewBox="0 0 14 14" fill="none" xmlns="http://www.w3.org/2000/svg">
<path d="M13.9317 4.13217C13.9239 3.54434 13.8138 2.96235 13.6065 2.41224C13.4267 1.94823 13.1521 1.52682 12.8002 1.17494C12.4483 0.823067 12.0269 0.548459 11.5629 0.368666C11.0199 0.164819 10.4462 0.0545946 9.86628 0.0426877C9.11964 0.00931372 8.88292 0 6.98758 0C5.09225 0 4.84932 5.20442e-08 4.10811 0.0426877C3.52845 0.0546822 2.95503 0.164905 2.41224 0.368666C1.94815 0.548334 1.52668 0.822897 1.17479 1.17479C0.822898 1.52668 0.548334 1.94815 0.368666 2.41224C0.16441 2.95487 0.0544253 3.52842 0.0434638 4.10811C0.0100898 4.85553 0 5.09225 0 6.98758C0 8.88291 -5.78269e-09 9.12507 0.0434638 9.86706C0.0551059 10.4476 0.164541 11.0204 0.368666 11.5645C0.548636 12.0284 0.823403 12.4497 1.17541 12.8015C1.52742 13.1532 1.94894 13.4277 2.41302 13.6073C2.95432 13.8193 3.52784 13.9374 4.10888 13.9565C4.8563 13.9899 5.09303 14 6.98836 14C8.88369 14 9.12662 14 9.86784 13.9565C10.4477 13.9451 11.0215 13.8351 11.5645 13.6313C12.0284 13.4513 12.4497 13.1767 12.8015 12.8248C13.1534 12.473 13.4281 12.0517 13.6081 11.5878C13.8122 11.0445 13.9216 10.4717 13.9333 9.89034C13.9666 9.1437 13.9767 8.90697 13.9767 7.01087C13.9752 5.11553 13.9752 4.87493 13.9317 4.13217ZM6.98293 10.5718C5.00067 10.5718 3.39483 8.96596 3.39483 6.9837C3.39483 5.00144 5.00067 3.39561 6.98293 3.39561C7.93455 3.39561 8.84719 3.77364 9.52009 4.44654C10.193 5.11944 10.571 6.03208 10.571 6.9837C10.571 7.93532 10.193 8.84797 9.52009 9.52087C8.84719 10.1938 7.93455 10.5718 6.98293 10.5718ZM10.7138 4.09957C10.2505 4.09957 9.87715 3.72547 9.87715 3.26289C9.87715 3.15307 9.89878 3.04432 9.94081 2.94286C9.98284 2.84139 10.0444 2.7492 10.1221 2.67154C10.1998 2.59389 10.2919 2.53229 10.3934 2.49026C10.4949 2.44823 10.6036 2.4266 10.7134 2.4266C10.8233 2.4266 10.932 2.44823 11.0335 2.49026C11.1349 2.53229 11.2271 2.59389 11.3048 2.67154C11.3824 2.7492 11.444 2.84139 11.4861 2.94286C11.5281 3.04432 11.5497 3.15307 11.5497 3.26289C11.5497 3.72547 11.1756 4.09957 10.7138 4.09957Z" fill="white"/>
<path d="M6.98382 9.31433C8.27106 9.31433 9.31457 8.27081 9.31457 6.98358C9.31457 5.69634 8.27106 4.65283 6.98382 4.65283C5.69659 4.65283 4.65308 5.69634 4.65308 6.98358C4.65308 8.27081 5.69659 9.31433 6.98382 9.31433Z" fill="white"/>
</svg>
