<svg width="17" height="10" viewBox="0 0 17 10" fill="none" xmlns="http://www.w3.org/2000/svg">
<path d="M16.4502 0.677197C16.5678 0.286507 16.4502 0 15.894 0H14.0514C13.5826 0 13.3683 0.247858 13.2507 0.520081C13.2507 0.520081 12.3139 2.80457 10.9864 4.28583C10.5579 4.71685 10.3621 4.85297 10.1285 4.85297C10.0118 4.85297 9.84204 4.71685 9.84204 4.32616V0.677197C9.84204 0.208369 9.70677 0 9.31608 0H6.42077C6.12838 0 5.95194 0.21677 5.95194 0.423458C5.95194 0.867081 6.61569 0.969585 6.68375 2.21979V4.93194C6.68375 5.52596 6.57705 5.63435 6.34179 5.63435C5.71753 5.63435 4.19845 3.34146 3.29692 0.716686C3.12132 0.206688 2.94404 0.000840535 2.47353 0.000840535H0.631827C0.105024 0.000840535 0 0.248698 0 0.520921C0 1.00991 0.624265 3.42968 2.90791 6.62998C4.43035 8.81532 6.57368 10 8.5263 10C9.69669 10 9.8412 9.73702 9.8412 9.28331V7.63149C9.8412 7.10553 9.95295 6.99966 10.3235 6.99966C10.5957 6.99966 11.0645 7.13746 12.1576 8.19022C13.4061 9.43875 13.6128 9.99916 14.3144 9.99916H16.1561C16.6821 9.99916 16.9451 9.73618 16.7938 9.21694C16.6283 8.70022 16.0318 7.94824 15.2403 7.05848C14.8101 6.551 14.1674 6.00487 13.9716 5.73181C13.6985 5.37977 13.7775 5.22433 13.9716 4.91178C13.9724 4.91262 16.2166 1.75181 16.4502 0.677197Z" fill="white"/>
</svg>
