<svg width="22" height="20" viewBox="0 0 22 20" fill="none" xmlns="http://www.w3.org/2000/svg">
<path d="M11.4299 20C11.5123 20.0001 11.594 19.9836 11.6699 19.9513C11.7457 19.9191 11.8143 19.8718 11.8714 19.8123L20.8977 10.4524C21.0081 10.3385 21.0698 10.1861 21.0698 10.0274C21.0698 9.8688 21.0081 9.71638 20.8977 9.60244L11.8322 0.204518C11.7773 0.143064 11.7105 0.093317 11.6359 0.0582512C11.5613 0.0231854 11.4804 0.00352051 11.398 0.000430911C11.3156 -0.00265869 11.2335 0.010891 11.1564 0.0402699C11.0794 0.0696489 11.0091 0.114254 10.9497 0.17142C10.8903 0.228586 10.8431 0.297138 10.8108 0.372982C10.7785 0.448825 10.7618 0.530402 10.7617 0.612837C10.7617 0.695272 10.7782 0.776872 10.8104 0.852762C10.8426 0.928652 10.8898 0.997273 10.9491 1.05453L19.6037 10.0268L10.9883 18.9611C10.9048 19.0477 10.8486 19.157 10.8268 19.2754C10.8049 19.3937 10.8184 19.5159 10.8655 19.6266C10.9125 19.7374 10.9911 19.8318 11.0915 19.8982C11.1919 19.9646 11.3095 20 11.4299 20Z" fill="#0029B6"/>
<path d="M0.389694 10.6396H19.2353C19.3386 10.6396 19.4378 10.575 19.5109 10.46C19.5839 10.345 19.625 10.189 19.625 10.0264C19.625 9.86371 19.5839 9.70773 19.5109 9.59271C19.4378 9.4777 19.3386 9.41309 19.2353 9.41309H0.389694C0.286341 9.41309 0.187221 9.4777 0.114139 9.59271C0.041057 9.70773 0 9.86371 0 10.0264C0 10.189 0.041057 10.345 0.114139 10.46C0.187221 10.575 0.286341 10.6396 0.389694 10.6396Z" fill="#0029B6"/>
</svg>
