<svg width="8" height="6" viewBox="0 0 8 6" fill="none" xmlns="http://www.w3.org/2000/svg">
<path d="M3.99194 4.2712L6.60463 1.01138C6.62927 0.97877 6.66003 0.950995 6.69607 0.931223C6.73284 0.911049 6.77381 0.89996 6.81624 0.9C6.85867 0.90004 6.89962 0.911204 6.93636 0.931439C6.97291 0.951578 7.00402 0.979953 7.0288 1.01325C7.05357 1.04653 7.07197 1.08464 7.08384 1.12488C7.09571 1.16515 7.10105 1.20757 7.09983 1.2498C7.0986 1.29202 7.09082 1.334 7.07651 1.37336C7.06245 1.41205 7.04208 1.44824 7.01562 1.47925L4.19743 4.9956C4.19739 4.99565 4.19735 4.99569 4.19731 4.99574L4.1973 4.99576L4.11927 4.93322C4.08509 4.97605 4.03936 5 3.99177 5C3.94418 5 3.89845 4.97605 3.86427 4.93322L3.99194 4.2712ZM3.99194 4.2712L1.38969 1.02538L1.38968 1.02536C1.3518 0.978142 1.30066 0.94232 1.24061 0.927981C1.17993 0.913489 1.11791 0.922895 1.06384 0.952623C1.01052 0.98194 0.969088 1.02851 0.941506 1.08244C0.913915 1.13638 0.90002 1.19776 0.900001 1.25914L3.99194 4.2712Z" fill="#0029B6" stroke="#0029B6" stroke-width="0.2"/>
</svg>
