<svg width="234" height="48" viewBox="0 0 234 48" fill="none" xmlns="http://www.w3.org/2000/svg">
<path d="M196.896 46.2519V33.4061H196.439C195.989 33.479 195.526 33.571 195.05 33.681C194.575 33.7909 194.181 33.9173 193.863 34.0644V34.5398L195.251 34.6855V46.2519C194.85 46.3494 194.449 46.4952 194.046 46.6903V47.1465H198.102V46.6903C197.699 46.4952 197.298 46.3494 196.896 46.2519Z" fill="#0029B6"/>
<path d="M15.759 41.555C15.759 40.7883 15.7068 40.1548 15.6037 39.6546C15.4993 39.1557 15.3385 38.76 15.1201 38.4687C14.9002 38.176 14.6227 37.9712 14.2874 37.8558C13.9535 37.739 13.5606 37.6813 13.1085 37.6813C12.3789 37.6813 11.7688 37.8902 11.2824 38.3024C10.796 38.7188 10.4429 39.2588 10.2231 39.9294C10.1502 39.4677 10.0348 39.0897 9.87544 38.797C9.71743 38.503 9.52232 38.2763 9.29148 38.1114C9.05927 37.9478 8.81055 37.8352 8.54261 37.7733C8.27468 37.7129 7.99439 37.6813 7.70173 37.6813C7.00785 37.6813 6.42527 37.8833 5.95672 38.2859C5.48818 38.6872 5.15567 39.175 4.96193 39.7466H4.94268V37.6813H4.48653C4.0963 37.7445 3.69781 37.8255 3.28972 37.9286C2.88164 38.0317 2.48318 38.1691 2.09296 38.3408V38.815L3.29935 38.962V46.142C3.07951 46.2025 2.86655 46.2698 2.65907 46.3426C2.45297 46.4168 2.26334 46.4952 2.09296 46.5804V47.0366H6.0213V46.5804C5.84955 46.4828 5.67641 46.4004 5.50054 46.333C5.32329 46.2671 5.13779 46.2025 4.94268 46.142V40.7704C5.01688 40.5148 5.11717 40.2702 5.24496 40.0393C5.37274 39.8084 5.52389 39.6009 5.70114 39.4182C5.87702 39.2354 6.07902 39.0898 6.30436 38.9798C6.5297 38.8699 6.777 38.815 7.04356 38.815C7.39669 38.815 7.68386 38.885 7.90233 39.0252C8.12217 39.1653 8.28979 39.366 8.40521 39.6285C8.52063 39.8896 8.60035 40.2152 8.64157 40.6055C8.68554 40.9971 8.70615 41.4341 8.70615 41.9205V46.142C8.46294 46.2025 8.25271 46.2725 8.07683 46.3522C7.89958 46.4319 7.75119 46.5075 7.6289 46.5804V47.0366H11.538V46.5804C11.1739 46.4086 10.7768 46.2629 10.3508 46.142V40.9532C10.4965 40.3321 10.7314 39.8194 11.0543 39.4182C11.3772 39.0155 11.8307 38.815 12.416 38.815C12.7801 38.815 13.0728 38.8781 13.2926 39.0059C13.5111 39.1337 13.6815 39.3179 13.8037 39.5556C13.926 39.7933 14.0071 40.0819 14.0497 40.4214C14.0923 40.7635 14.1143 41.1538 14.1143 41.5922V46.142C13.7612 46.2396 13.4026 46.3852 13.0371 46.5804V47.0366H16.964V46.5804C16.5738 46.3619 16.1726 46.2148 15.759 46.142V41.555Z" fill="#0029B6"/>
<path d="M41.4656 41.2362C41.4601 41.3406 41.4505 41.4451 41.4381 41.555H37.4191C37.4933 40.3746 37.7118 39.5487 38.0773 39.0788C38.4414 38.6115 38.9731 38.3752 39.667 38.3752C40.288 38.3752 40.7442 38.6074 41.0369 39.0705C41.3296 39.5322 41.4752 40.1547 41.4752 40.9339C41.4752 41.0314 41.4725 41.1317 41.4656 41.2362ZM42.1059 38.3215C41.783 38.0536 41.4148 37.8612 41.0012 37.7444C40.5862 37.629 40.1658 37.5713 39.7398 37.5713C38.4249 37.5713 37.4081 37.9808 36.6881 38.797C35.9709 39.6133 35.6109 40.7992 35.6109 42.3602C35.6109 43.0899 35.7043 43.7468 35.8939 44.3335C36.0822 44.9176 36.3597 45.4205 36.7252 45.8396C37.0907 46.2601 37.5469 46.583 38.0951 46.807C38.6433 47.0338 39.2768 47.1465 39.9954 47.1465C40.3238 47.1465 40.6467 47.1067 40.9627 47.0283C41.2801 46.9472 41.5728 46.8414 41.8407 46.7081C42.1086 46.5735 42.3463 46.4154 42.5538 46.2327C42.7613 46.0485 42.9124 45.8562 43.01 45.6487L42.7544 45.3559C42.5346 45.551 42.2062 45.7077 41.7679 45.83C41.3296 45.9523 40.8967 46.0141 40.4708 46.0141C39.9459 46.0141 39.4898 45.9193 39.0995 45.7297C38.7107 45.5414 38.3878 45.2817 38.1322 44.9533C37.8766 44.6249 37.6843 44.2388 37.5565 43.7935C37.4287 43.3483 37.3655 42.8714 37.3655 42.3602H43.065C43.1131 42.1156 43.1474 41.8876 43.1653 41.6746C43.1831 41.4616 43.1927 41.2499 43.1927 41.0438C43.1927 40.3856 43.0925 39.8345 42.8918 39.3893C42.6912 38.9454 42.4274 38.5895 42.1059 38.3215Z" fill="#0029B6"/>
<path d="M73.3329 43.9117C73.1969 44.5575 72.9551 45.0687 72.6006 45.4466C72.2475 45.8245 71.772 46.0141 71.1757 46.0141C70.7855 46.0141 70.4543 45.9193 70.1809 45.7297C69.9061 45.5414 69.678 45.2817 69.4953 44.9533C69.3125 44.6249 69.1779 44.2442 69.0941 43.8114C69.0089 43.3799 68.9649 42.9127 68.9649 42.4139C68.9649 41.2087 69.1847 40.2426 69.6231 39.5184C70.0614 38.7943 70.6948 38.4315 71.5233 38.4315C71.9616 38.4315 72.3203 38.4549 72.6006 38.503C72.8809 38.5525 73.1241 38.6376 73.3329 38.7599V43.9117ZM74.9763 33.1877H74.5187C74.0928 33.2605 73.6448 33.3512 73.1763 33.4612C72.7077 33.5711 72.2969 33.6989 71.9438 33.8446V34.32L73.3329 34.467V37.919C73.0265 37.809 72.7462 37.7334 72.4907 37.6908C72.2351 37.6482 71.882 37.6262 71.4313 37.6262C70.1397 37.6262 69.1147 38.0344 68.3535 38.852C67.5909 39.6669 67.2117 40.8542 67.2117 42.4139C67.2117 44.034 67.5098 45.2295 68.1062 45.9949C68.7025 46.7631 69.6052 47.1465 70.8102 47.1465C71.1276 47.1465 71.423 47.0915 71.6965 46.9816C71.9713 46.8716 72.2145 46.7232 72.4275 46.535C72.6404 46.3453 72.8204 46.1296 72.9661 45.885C73.1131 45.6417 73.2161 45.3862 73.278 45.1196H73.3494L73.5143 47.1094H73.9719C74.3373 47.0599 74.7083 46.9761 75.0862 46.8538C75.4627 46.7315 75.8282 46.5858 76.1813 46.4155V46.0321L74.9763 45.885V33.1877Z" fill="#0029B6"/>
<path d="M102.773 35.9653C103.126 35.9653 103.407 35.8705 103.614 35.6822C103.82 35.4926 103.923 35.2343 103.923 34.9059C103.923 34.5774 103.82 34.315 103.614 34.1212C103.407 33.9247 103.126 33.8271 102.773 33.8271C102.42 33.8271 102.136 33.9247 101.923 34.1212C101.71 34.315 101.604 34.5774 101.604 34.9059C101.604 35.2343 101.71 35.4926 101.923 35.6822C102.136 35.8705 102.42 35.9653 102.773 35.9653Z" fill="#0029B6"/>
<path d="M103.593 46.2519V37.7911H103.137C102.722 37.8653 102.309 37.956 101.895 38.066C101.48 38.1773 101.097 38.3051 100.744 38.4507V38.9248L101.949 39.0718V46.2519C101.718 46.3123 101.505 46.3769 101.31 46.4429C101.115 46.5102 100.926 46.5941 100.744 46.6903V47.1465H104.8V46.6903C104.628 46.5941 104.447 46.5102 104.252 46.4429C104.056 46.3769 103.837 46.3123 103.593 46.2519Z" fill="#0029B6"/>
<path d="M136.341 45.83C136.025 45.9523 135.653 46.0141 135.227 46.0141C134.703 46.0141 134.243 45.9097 133.847 45.7036C133.452 45.4961 133.123 45.2186 132.861 44.8723C132.598 44.5246 132.405 44.1316 132.277 43.6932C132.149 43.2549 132.084 42.8041 132.084 42.3396C132.084 40.9036 132.308 39.884 132.76 39.2794C133.211 38.6775 133.85 38.3752 134.679 38.3752C134.934 38.3752 135.117 38.3903 135.227 38.4219C135.337 38.4521 135.434 38.4975 135.518 38.5579L136.286 40.7333H136.779C136.925 40.4048 137.047 39.9912 137.145 39.491C137.242 38.9922 137.31 38.5414 137.346 38.1374C137.017 37.9684 136.619 37.8324 136.149 37.7279C135.68 37.6235 135.147 37.5713 134.551 37.5713C133.248 37.5713 132.219 37.9835 131.463 38.8053C130.708 39.6284 130.331 40.8116 130.331 42.3602C130.331 43.0776 130.418 43.7331 130.595 44.3226C130.772 44.9149 131.036 45.4205 131.391 45.8396C131.744 46.2601 132.185 46.583 132.714 46.807C133.244 47.0338 133.868 47.1465 134.588 47.1465C135.245 47.1465 135.82 47.0036 136.314 46.7164C136.807 46.4319 137.163 46.0746 137.383 45.6487L137.145 45.3917C136.925 45.5634 136.657 45.7077 136.341 45.83Z" fill="#0029B6"/>
<path d="M166.111 44.4242C166.075 44.5452 166.008 44.695 165.91 44.8723C165.812 45.0482 165.685 45.2226 165.527 45.3917C165.369 45.5634 165.174 45.7077 164.943 45.83C164.711 45.9523 164.443 46.0141 164.137 46.0141C163.676 46.0141 163.309 45.8712 163.042 45.584C162.773 45.2982 162.64 44.8929 162.64 44.3693C162.64 44.0642 162.689 43.7935 162.787 43.5558C162.883 43.3194 163.06 43.1215 163.316 42.9621C163.571 42.8041 163.926 42.6887 164.375 42.6158C164.826 42.5416 165.404 42.5059 166.111 42.5059V44.4242ZM167.683 45.2295C167.67 45.033 167.665 44.8021 167.665 44.5342C167.665 43.9117 167.68 43.2644 167.71 42.587C167.74 41.9123 167.755 41.2087 167.755 40.4763C167.755 40.1368 167.725 39.7947 167.665 39.4539C167.603 39.1131 167.475 38.8025 167.281 38.5222C167.086 38.2418 166.802 38.0124 166.431 37.8378C166.058 37.6606 165.564 37.5713 164.943 37.5713C164.247 37.5713 163.618 37.651 163.051 37.809C162.485 37.9684 161.969 38.1869 161.508 38.4686C161.531 38.8451 161.589 39.2299 161.681 39.6202C161.771 40.0091 161.879 40.3856 162.001 40.7511H162.475L163.334 38.5579C163.541 38.4741 163.751 38.4219 163.964 38.404C164.177 38.3848 164.368 38.3752 164.54 38.3752C164.906 38.3752 165.2 38.4576 165.426 38.6225C165.652 38.7874 165.822 39.0183 165.937 39.3178C166.053 39.616 166.12 39.9747 166.138 40.3952C166.157 40.8143 166.141 41.287 166.093 41.8106C165.241 41.86 164.491 41.9302 163.846 42.0209C163.2 42.1129 162.658 42.2613 162.219 42.4688C161.781 42.6763 161.45 42.9594 161.225 43.3194C160.999 43.6781 160.887 44.1385 160.887 44.6977C160.887 45.4288 161.122 46.0197 161.589 46.4704C162.059 46.9211 162.665 47.1465 163.407 47.1465C163.797 47.1465 164.144 47.086 164.448 46.9637C164.753 46.8414 165.018 46.682 165.244 46.4883C165.469 46.2931 165.652 46.0719 165.792 45.8218C165.932 45.573 166.025 45.3257 166.075 45.0811H166.166C166.178 45.4851 166.196 45.852 166.222 46.1873C166.245 46.5226 166.318 46.8304 166.44 47.1094H166.897C167.237 47.0489 167.595 46.9582 167.967 46.8359C168.338 46.7136 168.676 46.5735 168.98 46.4155V46.0321L167.72 45.8493C167.707 45.6294 167.695 45.4233 167.683 45.2295Z" fill="#0029B6"/>
<path d="M6.48951 11.9977L8.5066 6.45981L9.0342 4.59784L9.43544 6.41861L11.5033 11.9977H6.48951ZM17.9337 18.6913C17.604 18.6061 17.2715 18.5305 16.9348 18.4604L9.99189 0.376364H8.96137L2.01709 18.4632C1.38092 18.6116 0.737849 18.83 0.101676 19.1117L0 19.1571V20.2358H6.42768V19.153L6.32188 19.1104C5.57853 18.8067 4.84344 18.5923 4.1317 18.4728L5.819 13.7662H12.0941L13.8364 18.4838C13.5245 18.5511 13.2085 18.6308 12.8966 18.7202C12.5187 18.8273 12.134 18.9592 11.7561 19.109L11.6476 19.1516V20.2358H19.0618V19.1709L18.9766 19.12C18.6537 18.9304 18.302 18.7861 17.9337 18.6913Z" fill="#0029B6"/>
<path d="M35.4887 7.037C35.6851 5.99676 36.0012 5.0788 36.4285 4.30651C36.8517 3.54522 37.4082 2.93235 38.0855 2.48849C38.7561 2.04738 39.5874 1.82476 40.5561 1.82476C41.5426 1.82476 42.4082 2.04876 43.1269 2.49124C43.8496 2.93785 44.4569 3.55073 44.9337 4.31477C45.4132 5.08567 45.7746 6.00363 46.0068 7.0425C46.2404 8.08962 46.3586 9.22328 46.3586 10.4106C46.3586 11.5965 46.2445 12.7302 46.0192 13.7787C45.7966 14.8203 45.4613 15.7409 45.0244 16.5118C44.5929 17.2759 44.0351 17.8874 43.3659 18.3326C42.705 18.7737 41.9163 18.9964 41.0205 18.9964C40.0326 18.9964 39.1669 18.771 38.4511 18.3285C37.7269 17.8833 37.1182 17.269 36.6428 16.505C36.1633 15.7355 35.7978 14.8189 35.556 13.7759C35.3128 12.7302 35.1905 11.5978 35.1905 10.4106C35.1905 9.2219 35.2908 8.08687 35.4887 7.037ZM34.2424 17.8613C34.994 18.7889 35.9311 19.5226 37.0303 20.0421C38.124 20.5588 39.384 20.8213 40.7745 20.8213C42.165 20.8213 43.4236 20.5588 44.5187 20.0421C45.6152 19.524 46.5537 18.7903 47.3053 17.8613C48.0568 16.9338 48.6381 15.8193 49.0365 14.5496C49.4336 13.2826 49.6342 11.8892 49.6342 10.4106C49.6342 8.93195 49.4336 7.53856 49.0365 6.27021C48.6381 5.00185 48.0568 3.88879 47.3053 2.95986C46.5523 2.03092 45.6152 1.29706 44.5174 0.777626C43.4223 0.262314 42.1637 -0.000106588 40.7745 -0.000106588C39.3854 -0.000106588 38.1254 0.262314 37.0303 0.777626C35.9325 1.29706 34.9954 2.03092 34.2424 2.95986C33.4922 3.88742 32.911 5.00185 32.5112 6.27021C32.1154 7.53581 31.9148 8.9292 31.9148 10.4106C31.9148 11.8933 32.1154 13.2853 32.5112 14.5496C32.911 15.8193 33.4922 16.9338 34.2424 17.8613Z" fill="#0029B6"/>
<path d="M50.649 23.2248C50.0279 23.4391 49.4068 23.5916 48.805 23.6782C47.0229 23.9324 45.337 23.8115 43.7005 23.4171C42.6192 23.1588 41.5268 22.8716 40.451 22.5638C39.3737 22.256 38.2924 21.9688 37.2399 21.7077C36.1681 21.4425 35.0661 21.3092 33.9642 21.3092C33.497 21.3092 33.0147 21.3422 32.5283 21.4095L31.1859 22.2849L31.5253 22.3714C32.9886 22.7438 34.3585 23.1835 35.5993 23.681C36.8593 24.1853 38.0478 24.6676 39.1649 25.1266C40.2696 25.5828 41.3345 25.9828 42.332 26.3153C43.3763 26.6616 44.3944 26.8196 45.326 26.8169C46.3606 26.8169 47.3431 26.5379 48.2499 25.9882C49.1719 25.4275 50.087 24.7418 50.9691 23.9462L51.0474 23.8775L50.796 23.1739L50.649 23.2248Z" fill="#0029B6"/>
<path d="M74.6184 1.48187L74.7063 1.53132C75.0004 1.6976 75.3384 1.86116 75.7108 2.01919C76.0419 2.15936 76.4019 2.29812 76.7839 2.43279V13.2145C76.7839 14.9789 76.395 16.2569 75.6283 17.0141C74.8616 17.7685 73.7679 18.1519 72.3787 18.1519C71.6478 18.1519 70.9869 18.0667 70.4125 17.8991C69.8478 17.7356 69.3697 17.4648 68.9904 17.0952C68.6112 16.7242 68.3158 16.2239 68.1152 15.6069C67.9118 14.979 67.8087 14.1833 67.8087 13.2406V2.19647C68.1165 2.11539 68.4229 2.02467 68.7293 1.92848C69.0742 1.81992 69.4301 1.6894 69.786 1.54098L69.8918 1.49562V0.416892H62.5875V1.49287L62.6864 1.53957C63.3968 1.86938 64.1181 2.09751 64.834 2.21706V13.7188C64.834 15.8996 65.4633 17.5431 66.7027 18.6054C67.9352 19.6607 69.7338 20.1953 72.0504 20.1953C73.0301 20.1953 73.9369 20.0579 74.7489 19.7886C75.5651 19.5179 76.2686 19.0932 76.8429 18.5284C77.4159 17.965 77.868 17.2436 78.1854 16.382C78.5028 15.5245 78.6622 14.4898 78.6622 13.308V2.44929C78.9919 2.35859 79.3217 2.23768 79.646 2.0879C80.0128 1.9175 80.3728 1.73061 80.7149 1.53273L80.8001 1.48187V0.416892H74.6184V1.48187Z" fill="#0029B6"/>
<path d="M99.7332 11.9977L101.752 6.45981L102.278 4.59784L102.679 6.41861L104.747 11.9977H99.7332ZM111.177 18.6913C110.855 18.6089 110.518 18.5305 110.179 18.4604L103.237 0.376364H102.205L95.2621 18.4632C94.626 18.6116 93.9829 18.83 93.3454 19.1117L93.2437 19.1571V20.2358H99.6714V19.153L99.5656 19.1104C98.8236 18.8067 98.0885 18.5923 97.3754 18.4728L99.0627 13.7662H105.339L107.081 18.4838C106.77 18.5511 106.454 18.6295 106.142 18.7202C105.762 18.8273 105.378 18.9592 105 19.109L104.893 19.1516V20.2358H112.307V19.1709L112.222 19.12C111.896 18.9304 111.546 18.7861 111.177 18.6913Z" fill="#0029B6"/>
<path d="M140.468 15.1573L140.445 15.013H139.498L138.156 18.3028H132.139V10.9991H136.33L137.399 13.0823H138.351L138.361 12.9202C138.469 11.0403 138.469 9.17002 138.361 7.36299L138.35 7.20222H137.399L136.331 9.23053H132.139V2.30883H137.822L138.946 5.32515H139.93L139.948 5.17398C140.038 4.42918 140.108 3.67475 140.155 2.92996C140.2 2.20302 140.233 1.45821 140.251 0.71753L140.257 0.540258H126.916V1.62309L127.023 1.66569C127.385 1.81136 127.767 1.94739 128.16 2.06969C128.501 2.17413 128.839 2.2621 129.164 2.33218V18.3028C128.354 18.4512 127.631 18.6683 127.017 18.9486L126.916 18.994V20.0713H140.765L140.772 19.9078C140.808 19.097 140.799 18.289 140.744 17.503C140.689 16.7238 140.597 15.9351 140.468 15.1573Z" fill="#0029B6"/>
<path d="M171.862 15.3758C171.813 14.8522 171.764 14.4139 171.709 14.036L171.688 13.8889H170.707L169.09 18.3028H163.077V2.34318C163.475 2.28684 163.873 2.20442 164.267 2.09861C164.703 1.98043 165.151 1.83472 165.597 1.66844L165.71 1.62584V0.540258H157.856V1.61624L157.955 1.6616C158.268 1.81138 158.627 1.94739 159.019 2.06969C159.365 2.17687 159.729 2.26625 160.104 2.33634V18.3028C159.813 18.355 159.506 18.4209 159.192 18.4992C158.819 18.5927 158.404 18.7452 157.956 18.9486L157.856 18.9954V20.0713H171.978L171.985 19.9078C172.004 19.4996 172.013 19.0366 172.013 18.5295C172.013 18.0224 171.999 17.4879 171.971 16.9437C171.944 16.3995 171.907 15.8718 171.862 15.3758Z" fill="#0029B6"/>
<path d="M202.908 15.3758C202.861 14.8481 202.81 14.4098 202.757 14.0374L202.736 13.8889H201.755L200.138 18.3028H194.126V2.34318C194.521 2.28684 194.919 2.20442 195.314 2.09861C195.749 1.98043 196.197 1.83472 196.645 1.66844L196.756 1.62584V0.540258H188.904V1.61624L189.003 1.6616C189.317 1.81138 189.675 1.94739 190.065 2.06969C190.413 2.17687 190.777 2.26625 191.15 2.33634V18.3028C190.858 18.355 190.553 18.4209 190.239 18.4992C189.867 18.5927 189.451 18.7452 189.004 18.9486L188.904 18.9954V20.0713H203.025L203.033 19.9078C203.051 19.4804 203.062 19.016 203.062 18.5295C203.062 18.0376 203.047 17.5195 203.019 16.9437C202.989 16.3693 202.953 15.8554 202.908 15.3758Z" fill="#0029B6"/>
<path d="M233.949 17.503C233.896 16.7238 233.802 15.9351 233.674 15.1573L233.65 15.013H232.703L231.361 18.3028H225.344V10.9991H229.536L230.604 13.0823H231.556L231.565 12.9202C231.674 11.0403 231.674 9.17002 231.565 7.36299L231.556 7.20222H230.604L229.536 9.23053H225.344V2.30883H231.028L232.151 5.32515H233.136L233.154 5.17398C233.244 4.42918 233.314 3.67475 233.361 2.92996C233.405 2.20302 233.438 1.45821 233.457 0.71753L233.461 0.540258H220.122V1.62309L220.23 1.66569C220.592 1.81273 220.974 1.94739 221.366 2.06969C221.707 2.17413 222.043 2.2621 222.369 2.33218V18.3028C221.558 18.4512 220.837 18.6683 220.223 18.9486L220.122 18.994V20.0713H233.97L233.978 19.9078C234.014 19.097 234.004 18.289 233.949 17.503Z" fill="#0029B6"/>
<path d="M227.064 26.3022H212.111V10.1543H211.08V26.3022H180.96V10.1543H179.93V26.3022H149.844V10.1543H148.814V26.3022H118.834V10.1543H117.803V26.3022H87.7534V10.1543H86.7229V26.3022H56.8352V10.1543H55.8047V42.5874H56.8352V27.3328H86.7229V42.5063H87.7534V27.3328H117.803V42.5063H118.834V27.3328H148.814V42.5874H149.844V27.3328H179.93V42.5874H180.96V27.3328H211.08V42.5874H212.111V27.3328H227.064V26.3022Z" fill="#0029B6"/>
<path d="M24.7228 26.3022H9.53436V27.3328H24.7228V42.5874H25.7533V10.0938H24.7228V26.3022Z" fill="#0029B6"/>
<path d="M225.552 43.7964C225.854 43.3966 226.041 42.906 226.041 42.3659C226.041 41.8066 225.839 41.2982 225.515 40.8928C225.93 41.2473 226.461 41.47 227.051 41.47C227.649 41.47 228.187 41.2418 228.605 40.8777C228.272 41.2858 228.066 41.7998 228.066 42.3659C228.066 42.9128 228.257 43.4089 228.568 43.8101C228.154 43.4652 227.631 43.2495 227.051 43.2495C226.479 43.2495 225.961 43.4598 225.552 43.7964ZM230.442 39.99C229.844 39.99 229.306 40.2181 228.888 40.5822C229.219 40.1741 229.427 39.6602 229.427 39.0927C229.427 37.7817 228.363 36.7167 227.051 36.7167C225.739 36.7167 224.675 37.7817 224.675 39.0927C224.675 39.6533 224.877 40.1618 225.201 40.5671C224.787 40.2126 224.253 39.99 223.665 39.99C222.353 39.99 221.29 41.0536 221.29 42.3659C221.29 43.6782 222.353 44.7419 223.665 44.7419C224.237 44.7419 224.754 44.533 225.164 44.1963C224.861 44.5948 224.675 45.0854 224.675 45.6241C224.675 46.9378 225.739 48 227.051 48C228.363 48 229.427 46.9378 229.427 45.6241C229.427 45.0799 229.234 44.5824 228.925 44.1812C229.339 44.5261 229.862 44.7419 230.442 44.7419C231.754 44.7419 232.818 43.6782 232.818 42.3659C232.818 41.0536 231.754 39.99 230.442 39.99Z" fill="#EB1D27"/>
</svg>
