<svg width="16" height="16" viewBox="0 0 16 16" fill="none" xmlns="http://www.w3.org/2000/svg">
<path d="M8.19363 1C4.22088 1 1 4.1732 1 8.08713C1 12.0011 4.22088 15.1743 8.19363 15.1743C12.1664 15.1743 15.3873 12.0011 15.3873 8.08713C15.3873 4.1732 12.1664 1 8.19363 1Z" stroke="#0029B6" stroke-width="0.8" stroke-miterlimit="10"/>
<path d="M8.19473 1C6.18641 1 4.2981 4.1732 4.2981 8.08713C4.2981 12.0011 6.18641 15.1743 8.19473 15.1743C10.2031 15.1743 12.0914 12.0011 12.0914 8.08713C12.0914 4.1732 10.2031 1 8.19473 1Z" stroke="#0029B6" stroke-width="0.8" stroke-miterlimit="10"/>
<path d="M3.39783 3.3623C4.72035 4.28738 6.38526 4.83901 8.19369 4.83901C10.0021 4.83901 11.667 4.28738 12.9896 3.3623" stroke="#0029B6" stroke-width="0.8" stroke-linecap="round" stroke-linejoin="round"/>
<path d="M12.9896 12.8122C11.667 11.8871 10.0021 11.3354 8.19369 11.3354C6.38526 11.3354 4.72035 11.8871 3.39783 12.8122" stroke="#0029B6" stroke-width="0.8" stroke-linecap="round" stroke-linejoin="round"/>
<path d="M8.19348 1V15.1743" stroke="#0029B6" stroke-width="0.8" stroke-miterlimit="10"/>
<path d="M15.3873 8.08691H1" stroke="#0029B6" stroke-width="0.8" stroke-miterlimit="10"/>
</svg>
